<svg width="188" height="66" viewBox="0 0 188 66" fill="none" xmlns="http://www.w3.org/2000/svg">
<path d="M4.21574 22.37L4.66296 21.4756H4.66295L4.21574 22.37ZM1.36574 19.79L0.504181 20.2977L0.508255 20.3045L1.36574 19.79ZM0.585739 14.15L0.62709 13.1509L-0.193604 13.1169L-0.386337 13.9154L0.585739 14.15ZM4.93575 14.33L5.91429 14.536L6.15773 13.3797L4.97708 13.3309L4.93575 14.33ZM5.83574 18.5L5.11847 19.1968L5.1235 19.202L5.12863 19.2071L5.83574 18.5ZM11.2057 18.59L11.8904 19.3188L11.8911 19.3182L11.2057 18.59ZM11.2657 13.64L10.5826 14.3703L10.5947 14.3816L10.6072 14.3926L11.2657 13.64ZM7.45575 12.77H6.45575V13.77H7.45575V12.77ZM7.45575 9.08V8.08H6.45575V9.08H7.45575ZM11.1457 8.45L11.7889 9.21571L11.7917 9.21339L11.1457 8.45ZM11.1157 4.79L11.7952 4.05624V4.05624L11.1157 4.79ZM8.89574 3.98L7.89789 3.91457L7.83093 4.93559L8.85323 4.9791L8.89574 3.98ZM9.13574 0.319999V-0.680001H8.19917L8.13788 0.254565L9.13574 0.319999ZM12.9457 1.13L12.5051 2.02767L12.5117 2.03092L12.5184 2.03407L12.9457 1.13ZM15.4957 3.32L14.6528 3.85803V3.85804L15.4957 3.32ZM15.6157 9.38L14.7655 8.85363L14.7619 8.85939L15.6157 9.38ZM13.3657 11.18L13.0105 10.2452L10.3129 11.2703L13.0664 12.1341L13.3657 11.18ZM15.7957 13.13L14.9429 13.6522L14.9467 13.6584L14.9507 13.6646L15.7957 13.13ZM15.7357 20L14.8914 19.4642L14.8887 19.4685L15.7357 20ZM12.9157 22.43L13.3451 23.3332L13.3513 23.3302L12.9157 22.43ZM8.59575 22.3C7.03854 22.3 5.73773 22.013 4.66296 21.4756L3.76852 23.2644C5.17375 23.967 6.79294 24.3 8.59575 24.3V22.3ZM4.66295 21.4756C3.57875 20.9335 2.77747 20.1992 2.22324 19.2755L0.508255 20.3045C1.27402 21.5808 2.37273 22.5665 3.76852 23.2644L4.66295 21.4756ZM2.22728 19.2823C1.66489 18.3279 1.37575 17.2457 1.37575 16.01H-0.624252C-0.624252 17.5743 -0.253403 19.0121 0.504196 20.2977L2.22728 19.2823ZM1.37575 16.01C1.37575 15.4208 1.43822 14.8802 1.55783 14.3846L-0.386337 13.9154C-0.546722 14.5798 -0.624252 15.2792 -0.624252 16.01H1.37575ZM0.544403 15.1491L4.89439 15.3291L4.97708 13.3309L0.62709 13.1509L0.544403 15.1491ZM3.9572 14.124C3.86061 14.5828 3.81573 15.0731 3.81573 15.59H5.81573C5.81573 15.1869 5.85088 14.8372 5.91429 14.536L3.9572 14.124ZM3.81573 15.59C3.81573 17.0166 4.21162 18.2633 5.11847 19.1968L6.55302 17.8032C6.09987 17.3367 5.81573 16.6434 5.81573 15.59H3.81573ZM5.12863 19.2071C6.0305 20.109 7.21336 20.52 8.56575 20.52V18.52C7.63812 18.52 7.00099 18.251 6.54285 17.7929L5.12863 19.2071ZM8.56575 20.52C9.86246 20.52 11.0068 20.1489 11.8904 19.3188L10.5211 17.8612C10.0847 18.2711 9.46902 18.52 8.56575 18.52V20.52ZM11.8911 19.3182C12.7999 18.4629 13.2257 17.3348 13.2257 16.04H11.2257C11.2257 16.8652 10.9716 17.4371 10.5204 17.8618L11.8911 19.3182ZM13.2257 16.04C13.2257 14.7815 12.8288 13.6789 11.9242 12.8874L10.6072 14.3926C10.9826 14.7211 11.2257 15.2185 11.2257 16.04H13.2257ZM11.9489 12.9097C11.0877 12.1041 9.93073 11.77 8.62575 11.77V13.77C9.60077 13.77 10.2038 14.0159 10.5826 14.3703L11.9489 12.9097ZM8.62575 11.77H7.45575V13.77H8.62575V11.77ZM8.45575 12.77V9.08H6.45575V12.77H8.45575ZM7.45575 10.08H8.92574V8.08H7.45575V10.08ZM8.92574 10.08C10.0275 10.08 11.0376 9.8468 11.7889 9.2157L10.5025 7.68429C10.2539 7.8932 9.78401 8.08 8.92574 8.08V10.08ZM11.7917 9.21339C12.5639 8.55996 12.9257 7.66586 12.9257 6.65H10.9257C10.9257 7.15414 10.7676 7.46003 10.4998 7.68661L11.7917 9.21339ZM12.9257 6.65C12.9257 5.63319 12.5408 4.74669 11.7952 4.05624L10.4363 5.52376C10.7706 5.83331 10.9257 6.18681 10.9257 6.65H12.9257ZM11.7952 4.05624C11.0371 3.35438 10.0477 3.02812 8.93826 2.9809L8.85323 4.9791C9.62375 5.01188 10.1143 5.22562 10.4363 5.52376L11.7952 4.05624ZM9.8936 4.04543L10.1336 0.385432L8.13788 0.254565L7.89789 3.91457L9.8936 4.04543ZM9.13574 1.32C10.4496 1.32 11.5643 1.56581 12.5051 2.02767L13.3864 0.232331C12.1272 -0.385817 10.7019 -0.680001 9.13574 -0.680001V1.32ZM12.5184 2.03407C13.4642 2.48121 14.1633 3.09109 14.6528 3.85803L16.3387 2.78196C15.6282 1.66891 14.6272 0.818787 13.3731 0.225927L12.5184 2.03407ZM14.6528 3.85804C15.1407 4.62233 15.3957 5.51204 15.3957 6.56H17.3957C17.3957 5.16796 17.0508 3.89767 16.3387 2.78196L14.6528 3.85804ZM15.3957 6.56C15.3957 7.42429 15.1823 8.18026 14.7655 8.85364L16.466 9.90635C17.0892 8.89974 17.3957 7.7757 17.3957 6.56H15.3957ZM14.7619 8.85939C14.3907 9.46821 13.8279 9.93461 13.0105 10.2452L13.721 12.1148C14.9036 11.6654 15.8408 10.9318 16.4695 9.90061L14.7619 8.85939ZM13.0664 12.1341C13.8377 12.3761 14.4589 12.8616 14.9429 13.6522L16.6486 12.6078C15.9326 11.4384 14.9338 10.6239 13.6651 10.2259L13.0664 12.1341ZM14.9507 13.6646C15.4607 14.4709 15.7257 15.4023 15.7257 16.49H17.7257C17.7257 15.0577 17.3708 13.7491 16.6408 12.5954L14.9507 13.6646ZM15.7257 16.49C15.7257 17.6113 15.444 18.5935 14.8914 19.4642L16.5801 20.5358C17.3475 19.3265 17.7257 17.9687 17.7257 16.49H15.7257ZM14.8887 19.4685C14.3623 20.3075 13.576 20.9996 12.4802 21.5298L13.3513 23.3302C14.7355 22.6604 15.8292 21.7325 16.5828 20.5315L14.8887 19.4685ZM12.4864 21.5269C11.4277 22.0302 10.1405 22.3 8.59575 22.3V24.3C10.371 24.3 11.9638 23.9898 13.3451 23.3331L12.4864 21.5269ZM21.6443 23L20.6902 23.2995L20.9102 24H21.6443V23ZM20.3843 17.84L19.397 17.9989L19.3992 18.0118L20.3843 17.84ZM20.9843 4.1L20.1043 3.62507V3.62507L20.9843 4.1ZM23.7743 1.22L23.2924 0.343762L23.2862 0.347241L23.7743 1.22ZM31.8743 1.22L31.3862 2.09278L31.3924 2.09622L31.8743 1.22ZM34.6943 4.1L33.8143 4.57494L33.8175 4.58083L34.6943 4.1ZM35.2643 17.87L34.2785 17.702L34.277 17.7111L35.2643 17.87ZM34.0343 23V24H34.7633L34.9864 23.306L34.0343 23ZM29.7143 23L28.7558 22.7152L28.374 24H29.7143V23ZM30.3443 5.36L29.5443 5.96L29.5491 5.96632L29.5539 5.97257L30.3443 5.36ZM25.3343 5.36L24.5439 4.74743L24.5391 4.75368L24.5343 4.76L25.3343 5.36ZM25.9943 23V24H27.3347L26.9529 22.7152L25.9943 23ZM22.5984 22.7005C22.0711 21.021 21.6617 19.3436 21.3695 17.6682L19.3992 18.0118C19.707 19.7764 20.1375 21.539 20.6902 23.2995L22.5984 22.7005ZM21.3716 17.6811C21.1016 16.0029 20.9643 14.1271 20.9643 12.05H18.9643C18.9643 14.2129 19.1071 16.1971 19.397 17.9989L21.3716 17.6811ZM20.9643 12.05V8.6H18.9643V12.05H20.9643ZM20.9643 8.6C20.9643 6.99042 21.2784 5.66076 21.8644 4.57493L20.1043 3.62507C19.3303 5.05924 18.9643 6.72958 18.9643 8.6H20.9643ZM21.8644 4.57493C22.4597 3.47174 23.2582 2.65449 24.2625 2.09276L23.2862 0.347241C21.9305 1.10551 20.8689 2.20826 20.1043 3.62507L21.8644 4.57493ZM24.2563 2.09622C25.2929 1.52606 26.4839 1.23 27.8543 1.23V-0.770002C26.1847 -0.770002 24.6558 -0.406064 23.2924 0.343784L24.2563 2.09622ZM27.8543 1.23C29.2025 1.23 30.3712 1.52505 31.3862 2.09276L32.3625 0.347242C31.0175 -0.405052 29.5061 -0.770002 27.8543 -0.770002V1.23ZM31.3924 2.09622C32.416 2.65919 33.2213 3.4761 33.8143 4.57493L35.5744 3.62507C34.8074 2.2039 33.7327 1.10081 32.3563 0.343784L31.3924 2.09622ZM33.8175 4.58083C34.401 5.64477 34.7143 6.95201 34.7143 8.54H36.7143C36.7143 6.68799 36.3477 5.03523 35.5712 3.61917L33.8175 4.58083ZM34.7143 8.54V12.05H36.7143V8.54H34.7143ZM34.7143 12.05C34.7143 14.1238 34.5675 16.0066 34.2785 17.702L36.2501 18.038C36.5611 16.2134 36.7143 14.2162 36.7143 12.05H34.7143ZM34.277 17.7111C34.0051 19.4012 33.6069 21.062 33.0823 22.694L34.9864 23.306C35.5418 21.578 35.9636 19.8188 36.2516 18.0289L34.277 17.7111ZM34.0343 22H29.7143V24H34.0343V22ZM30.6729 23.2848C31.7406 19.6916 32.2743 16.0057 32.2743 12.23H30.2743C30.2743 15.8143 29.7681 19.3084 28.7558 22.7152L30.6729 23.2848ZM32.2743 12.23V8.78H30.2743V12.23H32.2743ZM32.2743 8.78C32.2743 7.17702 31.9408 5.78743 31.1348 4.74743L29.5539 5.97257C29.9879 6.53257 30.2743 7.42298 30.2743 8.78H32.2743ZM31.1443 4.76C30.3427 3.69108 29.2071 3.16 27.8543 3.16V5.16C28.6216 5.16 29.146 5.42892 29.5443 5.96L31.1443 4.76ZM27.8543 3.16C26.5022 3.16 25.3635 3.6899 24.5439 4.74743L26.1248 5.97257C26.5452 5.4301 27.0865 5.16 27.8543 5.16V3.16ZM24.5343 4.76C23.754 5.80042 23.4343 7.19646 23.4343 8.81H25.4343C25.4343 7.42354 25.7146 6.51958 26.1343 5.96L24.5343 4.76ZM23.4343 8.81V12.23H25.4343V8.81H23.4343ZM23.4343 12.23C23.4343 16.0057 23.9681 19.6916 25.0358 23.2848L26.9529 22.7152C25.9406 19.3084 25.4343 15.8143 25.4343 12.23H23.4343ZM25.9943 22H21.6443V24H25.9943V22ZM42.991 22.31L43.4855 21.4408L42.991 22.31ZM40.261 19.43L41.1468 18.966L40.261 19.43ZM40.201 4.1L39.3093 3.6471L39.3037 3.65849L40.201 4.1ZM42.841 1.22L42.3399 0.354548L42.3333 0.358461L42.841 1.22ZM52.411 3.29L51.5236 3.75108L52.4728 5.57774L53.3219 3.70251L52.411 3.29ZM54.571 0.979999L55.0182 1.87443L55.0256 1.87073L55.0329 1.86691L54.571 0.979999ZM62.461 2.27L61.7111 2.93164L61.716 2.93712L62.461 2.27ZM63.841 17.78L64.8283 17.9389L64.8286 17.9371L63.841 17.78ZM62.611 23V24H63.3477L63.566 23.2964L62.611 23ZM58.231 23L57.272 22.7167L56.8928 24H58.231V23ZM59.401 17.69L58.4128 17.5363L58.4115 17.5455L59.401 17.69ZM59.101 5.06L58.3074 5.66843L58.3137 5.67663L58.3201 5.68469L59.101 5.06ZM55.291 5.06L56.0974 5.65136V5.65136L55.291 5.06ZM53.611 19.49L52.7309 19.0151L52.7282 19.0202L53.611 19.49ZM50.881 22.34L51.3641 23.2157L51.3755 23.2092L50.881 22.34ZM44.581 18.29L43.7835 18.8935L43.7916 18.9039L44.581 18.29ZM49.321 18.29L50.1104 18.904L50.1184 18.8934L49.321 18.29ZM49.321 5.27L48.5235 5.8735L48.5316 5.88394L49.321 5.27ZM44.581 5.27L45.3704 5.88399L45.3784 5.87344L44.581 5.27ZM46.951 22.3C45.625 22.3 44.4788 22.006 43.4855 21.4408L42.4965 23.1792C43.8231 23.934 45.3169 24.3 46.951 24.3V22.3ZM43.4855 21.4408C42.5032 20.8819 41.724 20.0679 41.1468 18.966L39.3752 19.894C40.118 21.3121 41.1588 22.4181 42.4965 23.1792L43.4855 21.4408ZM41.1468 18.966C40.5768 17.8777 40.271 16.544 40.271 14.93H38.271C38.271 16.796 38.6252 18.4623 39.3752 19.894L41.1468 18.966ZM40.271 14.93V8.6H38.271V14.93H40.271ZM40.271 8.6C40.271 6.97727 40.56 5.63526 41.0982 4.54151L39.3037 3.65849C38.6019 5.08474 38.271 6.74272 38.271 8.6H40.271ZM41.0926 4.55286C41.654 3.4475 42.4073 2.63629 43.3487 2.08154L42.3333 0.358461C41.0347 1.1237 40.0279 2.2325 39.3094 3.64713L41.0926 4.55286ZM43.342 2.08543C44.3116 1.52407 45.4447 1.23 46.771 1.23V-0.770002C45.1372 -0.770002 43.6503 -0.404074 42.3399 0.354574L43.342 2.08543ZM46.771 1.23C47.9972 1.23 48.969 1.46157 49.7291 1.87396C50.4803 2.28155 51.0784 2.8943 51.5236 3.75108L53.2983 2.82892C52.6835 1.64569 51.8116 0.72845 50.6829 0.116033C49.563 -0.491578 48.2447 -0.770002 46.771 -0.770002V1.23ZM53.3219 3.70251C53.7158 2.83278 54.2813 2.24289 55.0182 1.87443L54.1238 0.0855718C52.9407 0.677106 52.0662 1.62722 51.5 2.87749L53.3219 3.70251ZM55.0329 1.86691C55.8506 1.44103 56.7122 1.23 57.631 1.23V-0.770002C56.3898 -0.770002 55.2113 -0.481036 54.109 0.0930853L55.0329 1.86691ZM57.631 1.23C59.4005 1.23 60.7238 1.81267 61.7111 2.93162L63.2108 1.60838C61.7981 0.00732803 59.9014 -0.770002 57.631 -0.770002V1.23ZM61.716 2.93712C62.695 4.03033 63.261 5.69522 63.261 8.09H65.261C65.261 5.40478 64.6269 3.18967 63.2059 1.60288L61.716 2.93712ZM63.261 8.09V11.84H65.261V8.09H63.261ZM63.261 11.84C63.261 13.9991 63.1235 15.9252 62.8534 17.6229L64.8286 17.9371C65.1185 16.1148 65.261 14.0809 65.261 11.84H63.261ZM62.8537 17.6211C62.5814 19.313 62.1824 21.0071 61.6559 22.7036L63.566 23.2964C64.1195 21.5129 64.5405 19.727 64.8283 17.9389L62.8537 17.6211ZM62.611 22H58.231V24H62.611V22ZM59.19 23.2833C59.7232 21.4788 60.1235 19.6624 60.3905 17.8345L58.4115 17.5455C58.1585 19.2776 57.7788 21.0012 57.272 22.7167L59.19 23.2833ZM60.3891 17.8437C60.6779 15.9872 60.821 14.0155 60.821 11.93H58.821C58.821 13.9245 58.6841 15.7928 58.4129 17.5363L60.3891 17.8437ZM60.821 11.93V7.79H58.821V11.93H60.821ZM60.821 7.79C60.821 6.46787 60.5659 5.29031 59.8819 4.4353L58.3201 5.68469C58.5961 6.02969 58.821 6.67212 58.821 7.79H60.821ZM59.8946 4.45157C59.2276 3.58159 58.2816 3.16 57.181 3.16V5.16C57.7203 5.16 58.0544 5.33841 58.3074 5.66843L59.8946 4.45157ZM57.181 3.16C56.0801 3.16 55.1342 3.58283 54.4846 4.46864L56.0974 5.65136C56.3278 5.33717 56.6418 5.16 57.181 5.16V3.16ZM54.4846 4.46863C53.8611 5.3188 53.631 6.48168 53.631 7.79H55.631C55.631 6.65832 55.8408 6.0012 56.0974 5.65136L54.4846 4.46863ZM53.631 7.79V15.02H55.631V7.79H53.631ZM53.631 15.02C53.631 16.6074 53.3178 17.9277 52.731 19.0151L54.491 19.9649C55.2641 18.5323 55.631 16.8726 55.631 15.02H53.631ZM52.7282 19.0202C52.1523 20.1022 51.373 20.9095 50.3865 21.4708L51.3755 23.2092C52.709 22.4505 53.7496 21.3578 54.4937 19.9598L52.7282 19.0202ZM50.3979 21.4644C49.4005 22.0147 48.2597 22.3 46.951 22.3V24.3C48.5623 24.3 50.0414 23.9453 51.3641 23.2156L50.3979 21.4644ZM42.741 14.93C42.741 16.5239 43.0331 17.9017 43.7836 18.8934L45.3784 17.6866C45.0089 17.1983 44.741 16.3361 44.741 14.93H42.741ZM43.7916 18.9039C44.5653 19.8986 45.664 20.37 46.951 20.37V18.37C46.1979 18.37 45.7167 18.1214 45.3703 17.6761L43.7916 18.9039ZM46.951 20.37C48.2379 20.37 49.3367 19.8986 50.1103 18.9039L48.5316 17.6761C48.1853 18.1214 47.704 18.37 46.951 18.37V20.37ZM50.1184 18.8934C50.8675 17.9035 51.161 16.5376 51.161 14.96H49.161C49.161 16.3424 48.8944 17.1965 48.5236 17.6866L50.1184 18.8934ZM51.161 14.96V8.57H49.161V14.96H51.161ZM51.161 8.57C51.161 6.99562 50.8688 5.63122 50.1103 4.65606L48.5316 5.88394C48.8932 6.34878 49.161 7.18438 49.161 8.57H51.161ZM50.1184 4.66656C49.3488 3.64956 48.2484 3.16 46.951 3.16V5.16C47.6935 5.16 48.1732 5.41044 48.5236 5.87344L50.1184 4.66656ZM46.951 3.16C45.6535 3.16 44.5532 3.64956 43.7836 4.66656L45.3784 5.87344C45.7288 5.41044 46.2084 5.16 46.951 5.16V3.16ZM43.7916 4.65606C43.0318 5.63303 42.741 7.00937 42.741 8.6H44.741C44.741 7.19063 45.0102 6.34697 45.3703 5.88394L43.7916 4.65606ZM42.741 8.6V14.93H44.741V8.6H42.741ZM70.3554 21.23L69.6585 21.9472L69.6635 21.952L70.3554 21.23ZM68.2254 0.559999V-0.440001H67.2254V0.559999H68.2254ZM72.6354 0.559999H73.6354V-0.440001H72.6354V0.559999ZM72.6354 10.07H71.6354V12.786L73.3967 10.7185L72.6354 10.07ZM74.4654 8.78L74.0859 7.85479L74.0774 7.85836L74.4654 8.78ZM80.9154 9.26L80.4259 10.1321L80.4377 10.1385L80.9154 9.26ZM83.5554 11.9L82.6769 12.3778L83.5554 11.9ZM83.4954 19.7L82.63 19.199L82.6272 19.2039L83.4954 19.7ZM80.6754 22.34L80.2168 21.4514L80.2109 21.4545L80.6754 22.34ZM73.6554 18.56L72.9701 19.2882L72.9758 19.2936L72.9817 19.299L73.6554 18.56ZM78.9354 18.5L78.2283 17.7929L78.9354 18.5ZM78.9354 13.13L78.2178 13.8265L78.2282 13.8372L78.239 13.8476L78.9354 13.13ZM73.6554 13.07L74.3292 13.809L74.335 13.8036L74.3408 13.7982L73.6554 13.07ZM76.3554 22.3C73.9772 22.3 72.2527 21.6631 71.0473 20.508L69.6635 21.952C71.3382 23.5569 73.6136 24.3 76.3554 24.3V22.3ZM71.0524 20.5129C69.8628 19.3568 69.2254 17.7657 69.2254 15.62H67.2254C67.2254 18.1943 68.0081 20.3432 69.6585 21.9471L71.0524 20.5129ZM69.2254 15.62V0.559999H67.2254V15.62H69.2254ZM68.2254 1.56H72.6354V-0.440001H68.2254V1.56ZM71.6354 0.559999V10.07H73.6354V0.559999H71.6354ZM73.3967 10.7185C73.7401 10.3154 74.2141 9.97084 74.8535 9.70163L74.0774 7.85836C73.1967 8.22916 72.4508 8.74464 71.8742 9.42153L73.3967 10.7185ZM74.845 9.70517C75.4966 9.43785 76.2067 9.3 76.9854 9.3V7.3C75.9641 7.3 74.9943 7.48215 74.0859 7.85483L74.845 9.70517ZM76.9854 9.3C78.317 9.3 79.4543 9.5865 80.4259 10.132L81.405 8.38801C80.0966 7.6535 78.6139 7.3 76.9854 7.3V9.3ZM80.4377 10.1385C81.4082 10.6663 82.1491 11.4072 82.6769 12.3778L84.4339 11.4222C83.7218 10.1128 82.7026 9.09365 81.3932 8.38152L80.4377 10.1385ZM82.6769 12.3778C83.2077 13.3536 83.4854 14.4857 83.4854 15.8H85.4854C85.4854 14.1943 85.1432 12.7264 84.4339 11.4222L82.6769 12.3778ZM83.4854 15.8C83.4854 17.1036 83.1926 18.2273 82.63 19.199L84.3609 20.201C85.1183 18.8927 85.4854 17.4164 85.4854 15.8H83.4854ZM82.6272 19.2039C82.0908 20.1425 81.2999 20.8924 80.2168 21.4514L81.1341 23.2286C82.531 22.5076 83.62 21.4975 84.3637 20.1961L82.6272 19.2039ZM80.2109 21.4545C79.1607 22.0054 77.8865 22.3 76.3554 22.3V24.3C78.1444 24.3 79.7501 23.9546 81.14 23.2255L80.2109 21.4545ZM71.6354 16.1C71.6354 17.3539 72.0739 18.4448 72.9701 19.2882L74.3408 17.8318C73.877 17.3952 73.6354 16.8461 73.6354 16.1H71.6354ZM72.9817 19.299C73.8773 20.1155 75.0122 20.49 76.2954 20.49V18.49C75.4187 18.49 74.7936 18.2445 74.3292 17.821L72.9817 19.299ZM76.2954 20.49C77.6097 20.49 78.7618 20.0878 79.6425 19.2071L78.2283 17.7929C77.7891 18.2322 77.1812 18.49 76.2954 18.49V20.49ZM79.6425 19.2071C80.541 18.3087 80.9554 17.138 80.9554 15.8H78.9554C78.9554 16.702 78.6899 17.3313 78.2283 17.7929L79.6425 19.2071ZM80.9554 15.8C80.9554 14.4628 80.541 13.2948 79.6319 12.4124L78.239 13.8476C78.6898 14.2852 78.9554 14.8972 78.9554 15.8H80.9554ZM79.653 12.4335C78.7742 11.528 77.6186 11.11 76.2954 11.11V13.11C77.1723 13.11 77.7767 13.372 78.2178 13.8265L79.653 12.4335ZM76.2954 11.11C75.0035 11.11 73.8645 11.5 72.9701 12.3418L74.3408 13.7982C74.8063 13.36 75.4274 13.11 76.2954 13.11V11.11ZM72.9817 12.331C72.07 13.1622 71.6354 14.2627 71.6354 15.53H73.6354C73.6354 14.7573 73.8808 14.2178 74.3292 13.809L72.9817 12.331ZM71.6354 15.53V16.1H73.6354V15.53H71.6354ZM99.4036 1.07L98.9875 1.97933L98.9933 1.98192L99.4036 1.07ZM102.224 3.38L101.397 3.94231V3.94231L102.224 3.38ZM102.464 9.71L103.289 10.2747L103.296 10.2647L102.464 9.71ZM100.154 11.45L99.7885 10.519L97.1238 11.564L99.8595 12.4058L100.154 11.45ZM102.614 13.34L101.771 13.878L101.777 13.8885L101.784 13.8989L102.614 13.34ZM102.554 20.03L101.714 19.4867L101.711 19.4909L102.554 20.03ZM99.7336 22.43L100.163 23.3332L100.169 23.3302L99.7336 22.43ZM90.9436 22.37L90.4964 23.2644L90.5021 23.2673L90.9436 22.37ZM88.0636 19.79L87.2021 20.2977L87.2075 20.3068L87.213 20.3158L88.0636 19.79ZM87.2836 14.15L87.325 13.1509L86.5043 13.1169L86.3116 13.9154L87.2836 14.15ZM91.6336 14.33L92.6122 14.536L92.8556 13.3797L91.675 13.3309L91.6336 14.33ZM92.5336 18.5L91.8265 19.2071L91.8316 19.2122L91.8369 19.2173L92.5336 18.5ZM98.0536 18.62L98.7263 19.3599L98.7274 19.359L98.0536 18.62ZM98.0836 13.79L97.4388 14.5543L97.4445 14.5592L97.4504 14.564L98.0836 13.79ZM94.6336 12.98H93.6336V13.98H94.6336V12.98ZM94.6336 9.44V8.44H93.6336V9.44H94.6336ZM97.9336 8.75L98.5821 9.51124L98.5901 9.50441L98.598 9.49741L97.9336 8.75ZM97.8136 4.79L97.1587 5.54569L97.1721 5.55729L97.1859 5.56841L97.8136 4.79ZM93.0136 4.85L92.319 4.1306L92.3127 4.13669L92.3065 4.14289L93.0136 4.85ZM92.2336 8.12L92.2605 9.11964L93.326 9.09103L93.2295 8.02946L92.2336 8.12ZM87.7636 8.24L86.772 8.36934L86.8887 9.26385L87.7905 9.23964L87.7636 8.24ZM88.6936 3.41L89.5153 3.9801L89.5206 3.97231L88.6936 3.41ZM91.4836 1.1L91.8998 2.0094L91.9124 2.00343L91.4836 1.1ZM95.4436 1.26C96.778 1.26 97.9535 1.50614 98.9875 1.97931L99.8198 0.160692C98.4937 -0.446138 97.0292 -0.74 95.4436 -0.74V1.26ZM98.9933 1.98192C100.04 2.45303 100.83 3.10847 101.397 3.94231L103.051 2.81769C102.258 1.65153 101.167 0.76697 99.814 0.158078L98.9933 1.98192ZM101.397 3.94231C101.95 4.75626 102.244 5.73463 102.244 6.92H104.244C104.244 5.38537 103.857 4.00374 103.051 2.81769L101.397 3.94231ZM102.244 6.92C102.244 7.83343 102.026 8.56348 101.632 9.1553L103.296 10.2647C103.941 9.29651 104.244 8.16657 104.244 6.92H102.244ZM101.638 9.14532C101.252 9.71048 100.658 10.1781 99.7885 10.519L100.519 12.381C101.689 11.9219 102.636 11.2295 103.289 10.2747L101.638 9.14532ZM99.8595 12.4058C100.667 12.6542 101.295 13.1325 101.771 13.878L103.457 12.802C102.732 11.6675 101.72 10.8858 100.448 10.4942L99.8595 12.4058ZM101.784 13.8989C102.278 14.632 102.544 15.5212 102.544 16.61H104.544C104.544 15.1788 104.189 13.888 103.443 12.7811L101.784 13.8989ZM102.544 16.61C102.544 17.6848 102.265 18.6348 101.714 19.4867L103.393 20.5733C104.162 19.3852 104.544 18.0552 104.544 16.61H102.544ZM101.711 19.4909C101.186 20.3118 100.399 20.9972 99.2981 21.5298L100.169 23.3302C101.548 22.6628 102.641 21.7482 103.396 20.5691L101.711 19.4909ZM99.3043 21.5269C98.2455 22.0302 96.9584 22.3 95.4136 22.3V24.3C97.1889 24.3 98.7817 23.9898 100.163 23.3331L99.3043 21.5269ZM95.4136 22.3C93.8129 22.3 92.4804 22.0117 91.3851 21.4727L90.5021 23.2673C91.9269 23.9683 93.5744 24.3 95.4136 24.3V22.3ZM91.3909 21.4756C90.3045 20.9324 89.4895 20.1948 88.9142 19.2642L87.213 20.3158C87.9977 21.5852 89.1028 22.5676 90.4964 23.2644L91.3909 21.4756ZM88.9252 19.2823C88.3628 18.3279 88.0736 17.2457 88.0736 16.01H86.0736C86.0736 17.5743 86.4445 19.0121 87.2021 20.2977L88.9252 19.2823ZM88.0736 16.01C88.0736 15.4208 88.1361 14.8802 88.2557 14.3846L86.3116 13.9154C86.1512 14.5798 86.0736 15.2792 86.0736 16.01H88.0736ZM87.2423 15.1491L91.5923 15.3291L91.675 13.3309L87.325 13.1509L87.2423 15.1491ZM90.6551 14.124C90.5585 14.5828 90.5136 15.0731 90.5136 15.59H92.5136C92.5136 15.1869 92.5488 14.8372 92.6122 14.536L90.6551 14.124ZM90.5136 15.59C90.5136 17.0297 90.9061 18.2867 91.8265 19.2071L93.2407 17.7929C92.8011 17.3533 92.5136 16.6703 92.5136 15.59H90.5136ZM91.8369 19.2173C92.7612 20.1152 93.9713 20.52 95.3536 20.52V18.52C94.376 18.52 93.706 18.2448 93.2304 17.7827L91.8369 19.2173ZM95.3536 20.52C96.6709 20.52 97.8354 20.1698 98.7263 19.3599L97.381 17.8801C96.9519 18.2702 96.3164 18.52 95.3536 18.52V20.52ZM98.7274 19.359C99.6434 18.5238 100.074 17.4107 100.074 16.13H98.0736C98.0736 16.9293 97.8239 17.4762 97.3799 17.881L98.7274 19.359ZM100.074 16.13C100.074 14.8752 99.6551 13.7837 98.7169 13.016L97.4504 14.564C97.8321 14.8763 98.0736 15.3448 98.0736 16.13H100.074ZM98.7285 13.0257C97.8493 12.2839 96.6893 11.98 95.3836 11.98V13.98C96.398 13.98 97.0379 14.2161 97.4388 14.5543L98.7285 13.0257ZM95.3836 11.98H94.6336V13.98H95.3836V11.98ZM95.6336 12.98V9.44H93.6336V12.98H95.6336ZM94.6336 10.44H95.6836V8.44H94.6336V10.44ZM95.6836 10.44C96.797 10.44 97.806 10.1724 98.5821 9.51124L97.2852 7.98876C96.9813 8.2476 96.4903 8.44 95.6836 8.44V10.44ZM98.598 9.49741C99.3815 8.80096 99.7436 7.86285 99.7436 6.8H97.7436C97.7436 7.37714 97.5658 7.73904 97.2693 8.00259L98.598 9.49741ZM99.7436 6.8C99.7436 5.67663 99.3112 4.71306 98.4414 4.01159L97.1859 5.56841C97.556 5.86694 97.7436 6.24337 97.7436 6.8H99.7436ZM98.4686 4.03431C97.6469 3.32222 96.6057 3.01 95.4436 3.01V5.01C96.2416 5.01 96.7803 5.21778 97.1587 5.54569L98.4686 4.03431ZM95.4436 3.01C94.2226 3.01 93.135 3.3428 92.319 4.1306L93.7082 5.5694C94.0523 5.2372 94.5847 5.01 95.4436 5.01V3.01ZM92.3065 4.14289C91.5166 4.93287 91.1736 5.98152 91.1736 7.16H93.1736C93.1736 6.37848 93.3907 5.88713 93.7207 5.55711L92.3065 4.14289ZM91.1736 7.16C91.1736 7.40874 91.1975 7.76743 91.2377 8.21054L93.2295 8.02946C93.1898 7.59257 93.1736 7.31126 93.1736 7.16H91.1736ZM92.2068 7.12036L87.7368 7.24036L87.7905 9.23964L92.2605 9.11964L92.2068 7.12036ZM88.7552 8.11066C88.701 7.695 88.6736 7.26824 88.6736 6.83H86.6736C86.6736 7.35176 86.7063 7.865 86.772 8.36934L88.7552 8.11066ZM88.6736 6.83C88.6736 5.71456 88.9619 4.77756 89.5152 3.98008L87.872 2.83992C87.0654 4.00244 86.6736 5.34544 86.6736 6.83H88.6736ZM89.5206 3.97231C90.0903 3.13438 90.8732 2.47909 91.8997 2.00931L91.0675 0.190691C89.7341 0.80091 88.6569 1.68562 87.8667 2.84769L89.5206 3.97231ZM91.9124 2.00343C92.9434 1.51415 94.1143 1.26 95.4436 1.26V-0.74C93.8529 -0.74 92.3839 -0.43415 91.0549 0.196574L91.9124 2.00343ZM116.49 0.559999H117.49V-0.440001H116.49V0.559999ZM116.82 2.99L115.864 3.28222V3.28222L116.82 2.99ZM117.66 4.88L116.814 5.41281L116.821 5.42385L116.828 5.4347L117.66 4.88ZM119.07 6.83L118.275 7.43668L118.279 7.44145L119.07 6.83ZM120.69 9.17L119.828 9.67702L119.837 9.69211L119.847 9.70688L120.69 9.17ZM121.74 11.63L120.779 11.9047L120.781 11.9137L120.784 11.9227L121.74 11.63ZM121.11 19.55L120.245 19.0478L120.239 19.0584L121.11 19.55ZM118.23 22.37L118.689 23.2584L118.695 23.2555L118.23 22.37ZM110.13 22.34L109.66 23.2224L110.13 22.34ZM107.28 19.52L106.403 20.0009L106.409 20.0116L107.28 19.52ZM106.68 11.72L106.715 10.7206L105.9 10.6925L105.708 11.4854L106.68 11.72ZM111.03 11.87L112.008 12.0781L112.257 10.9117L111.065 10.8706L111.03 11.87ZM111.63 18.08L110.817 18.6612L110.821 18.6676L110.826 18.6739L111.63 18.08ZM116.7 18.23L115.925 17.5979L115.924 17.6002L116.7 18.23ZM117.66 14.96L118.66 14.9741V14.96H117.66ZM117.03 12.05L116.132 12.4884L116.138 12.5017L116.145 12.5148L117.03 12.05ZM115.17 9.17L115.965 8.56306L115.96 8.55606L115.17 9.17ZM113.46 6.74L112.596 7.24387L112.602 7.25271L112.607 7.26145L113.46 6.74ZM112.38 4.13L111.416 4.39472L111.418 4.40346L111.421 4.41217L112.38 4.13ZM112.02 0.559999V-0.440001H111.049L111.021 0.5306L112.02 0.559999ZM115.49 0.559999C115.49 1.54031 115.61 2.45113 115.864 3.28222L117.777 2.69778C117.591 2.08887 117.49 1.37969 117.49 0.559999H115.49ZM115.864 3.28222C116.105 4.07219 116.419 4.78583 116.814 5.41281L118.507 4.34719C118.221 3.89417 117.975 3.34781 117.777 2.69778L115.864 3.28222ZM116.828 5.4347C117.204 5.99855 117.688 6.66685 118.275 7.43667L119.865 6.22333C119.293 5.47315 118.836 4.84145 118.492 4.3253L116.828 5.4347ZM118.279 7.44145C118.943 8.30048 119.456 9.04459 119.828 9.67702L121.552 8.66298C121.124 7.9354 120.558 7.11952 119.862 6.21855L118.279 7.44145ZM119.847 9.70688C120.202 10.2653 120.518 10.991 120.779 11.9047L122.702 11.3553C122.403 10.309 122.019 9.39465 121.534 8.63312L119.847 9.70688ZM120.784 11.9227C121.048 12.7864 121.19 13.8239 121.19 15.05H123.19C123.19 13.6761 123.032 12.4336 122.696 11.3373L120.784 11.9227ZM121.19 15.05C121.19 16.6735 120.859 17.9915 120.245 19.0479L121.975 20.0521C122.802 18.6285 123.19 16.9465 123.19 15.05H121.19ZM120.239 19.0584C119.631 20.1367 118.809 20.937 117.766 21.4845L118.695 23.2555C120.091 22.523 121.19 21.4433 121.981 20.0416L120.239 19.0584ZM117.771 21.4816C116.728 22.0205 115.538 22.3 114.18 22.3V24.3C115.822 24.3 117.332 23.9595 118.689 23.2584L117.771 21.4816ZM114.18 22.3C112.827 22.3 111.642 22.0127 110.601 21.4576L109.66 23.2224C111.019 23.9473 112.533 24.3 114.18 24.3V22.3ZM110.601 21.4576C109.577 20.9115 108.762 20.1109 108.151 19.0284L106.409 20.0116C107.198 21.4091 108.284 22.4885 109.66 23.2224L110.601 21.4576ZM108.157 19.0392C107.575 17.9784 107.26 16.6524 107.26 15.02H105.26C105.26 16.9076 105.625 18.5816 106.403 20.0008L108.157 19.0392ZM107.26 15.02C107.26 14.0696 107.388 13.0488 107.652 11.9546L105.708 11.4854C105.412 12.7112 105.26 13.8904 105.26 15.02H107.26ZM106.646 12.7194L110.996 12.8694L111.065 10.8706L106.715 10.7206L106.646 12.7194ZM110.052 11.6619C109.838 12.6673 109.73 13.667 109.73 14.66H111.73C111.73 13.813 111.822 12.9527 112.008 12.0781L110.052 11.6619ZM109.73 14.66C109.73 16.2284 110.056 17.5965 110.817 18.6612L112.444 17.4988C112.005 16.8835 111.73 15.9716 111.73 14.66H109.73ZM110.826 18.6739C111.646 19.7849 112.813 20.34 114.21 20.34V18.34C113.408 18.34 112.855 18.0551 112.435 17.4861L110.826 18.6739ZM114.21 20.34C115.533 20.34 116.664 19.8624 117.477 18.8598L115.924 17.6002C115.536 18.0776 115.007 18.34 114.21 18.34V20.34ZM117.475 18.8621C118.289 17.8642 118.638 16.5216 118.66 14.9741L116.66 14.9459C116.642 16.2384 116.351 17.0758 115.925 17.5979L117.475 18.8621ZM118.66 14.96C118.66 13.6995 118.428 12.5612 117.916 11.5852L116.145 12.5148C116.472 13.1388 116.66 13.9405 116.66 14.96H118.66ZM117.929 11.6116C117.489 10.71 116.827 9.69168 115.965 8.56309L114.376 9.77691C115.194 10.8483 115.771 11.75 116.132 12.4884L117.929 11.6116ZM115.96 8.55606C115.275 7.67614 114.729 6.89768 114.314 6.21855L112.607 7.26145C113.072 8.02232 113.665 8.86386 114.381 9.78394L115.96 8.55606ZM114.324 6.23613C113.954 5.60194 113.623 4.81046 113.34 3.84783L111.421 4.41217C111.738 5.48954 112.126 6.43805 112.596 7.24387L114.324 6.23613ZM113.345 3.86528C113.097 2.96388 112.982 1.87701 113.02 0.589398L111.021 0.5306C110.979 1.96299 111.103 3.25612 111.416 4.39472L113.345 3.86528ZM112.02 1.56H116.49V-0.440001H112.02V1.56ZM145.623 9.38L145.129 10.2493L145.139 10.255L145.149 10.2605L145.623 9.38ZM148.083 11.99L147.192 12.4433L147.198 12.4551L148.083 11.99ZM148.593 19.79L147.626 19.5346L147.624 19.5432L147.622 19.5518L148.593 19.79ZM147.513 23V24H148.174L148.433 23.3919L147.513 23ZM143.103 23L142.175 22.6286L141.626 24H143.103V23ZM144.153 19.73L143.182 19.4921L143.179 19.5015L143.177 19.511L144.153 19.73ZM143.763 13.43L142.946 14.0067L142.952 14.0146L142.957 14.0224L143.763 13.43ZM139.923 13.31L139.117 12.7186L139.113 12.7235L139.923 13.31ZM139.293 19.64V20.64H140.293V19.64H139.293ZM134.823 19.64H133.823V20.64H134.823V19.64ZM134.193 13.31L133.374 13.8835L133.378 13.89L133.383 13.8965L134.193 13.31ZM130.353 13.43L129.547 12.8376L129.544 12.8418L130.353 13.43ZM129.963 19.76L128.987 19.979L128.988 19.9834L129.963 19.76ZM131.043 23V24H132.543L131.966 22.6154L131.043 23ZM126.633 23L125.691 23.3363L125.928 24H126.633V23ZM125.493 18.98L124.51 19.1615L124.511 19.1703L124.513 19.1791L125.493 18.98ZM126.573 7.91L125.718 7.39074L126.573 7.91ZM129.933 4.55L130.391 5.43887L130.402 5.43312L129.933 4.55ZM134.673 2.72L134.398 1.75847L134.397 1.75886L134.673 2.72ZM137.403 1.76L136.968 0.859362L136.956 0.865572L137.403 1.76ZM138.483 0.559999V-0.440001H137.717L137.517 0.300025L138.483 0.559999ZM143.073 0.559999L144.071 0.626518L144.142 -0.440001H143.073V0.559999ZM141.843 3.47L141.136 2.76283L141.126 2.77264L141.843 3.47ZM135.333 6.35L135.583 7.31839L135.584 7.318L135.333 6.35ZM132.153 7.25L132.462 8.20103L132.153 7.25ZM129.993 8.33L129.409 7.51798L129.403 7.5224L129.397 7.5269L129.993 8.33ZM128.703 10.1L127.754 9.78377L129.503 10.7L128.703 10.1ZM130.383 8.9L130.707 9.84595L130.719 9.84184L130.731 9.83742L130.383 8.9ZM137.073 11.12L136.181 11.5713L137.044 13.278L137.953 11.5953L137.073 11.12ZM142.203 9.51C143.303 9.51 144.271 9.76126 145.129 10.2493L146.117 8.51071C144.936 7.83874 143.623 7.51 142.203 7.51V9.51ZM145.149 10.2605C145.988 10.7124 146.672 11.422 147.192 12.4432L148.974 11.5368C148.294 10.198 147.338 9.16757 146.097 8.49953L145.149 10.2605ZM147.198 12.4551C147.721 13.4517 148.013 14.7599 148.013 16.43H150.013C150.013 14.5401 149.685 12.8883 148.968 11.5249L147.198 12.4551ZM148.013 16.43C148.013 17.5303 147.883 18.564 147.626 19.5346L149.56 20.0454C149.864 18.896 150.013 17.6897 150.013 16.43H148.013ZM147.622 19.5518C147.376 20.5555 147.033 21.5742 146.593 22.6081L148.433 23.3919C148.913 22.2658 149.29 21.1445 149.564 20.0282L147.622 19.5518ZM147.513 22H143.103V24H147.513V22ZM144.032 23.3714C144.526 22.1352 144.894 20.9933 145.129 19.949L143.177 19.511C142.972 20.4267 142.64 21.4648 142.175 22.6286L144.032 23.3714ZM145.124 19.9679C145.385 18.902 145.513 17.7715 145.513 16.58H143.513C143.513 17.6285 143.401 18.598 143.182 19.4921L145.124 19.9679ZM145.513 16.58C145.513 15.0784 145.255 13.7714 144.569 12.8376L142.957 14.0224C143.271 14.4486 143.513 15.2416 143.513 16.58H145.513ZM144.58 12.8533C143.911 11.905 142.944 11.41 141.783 11.41V13.41C142.302 13.41 142.656 13.595 142.946 14.0067L144.58 12.8533ZM141.783 11.41C140.692 11.41 139.761 11.84 139.117 12.7186L140.729 13.9014C140.965 13.58 141.274 13.41 141.783 13.41V11.41ZM139.113 12.7235C138.523 13.5383 138.293 14.5956 138.293 15.77H140.293C140.293 14.8244 140.483 14.2417 140.733 13.8965L139.113 12.7235ZM138.293 15.77V19.64H140.293V15.77H138.293ZM139.293 18.64H134.823V20.64H139.293V18.64ZM135.823 19.64V15.77H133.823V19.64H135.823ZM135.823 15.77C135.823 14.5956 135.593 13.5383 135.003 12.7235L133.383 13.8965C133.633 14.2417 133.823 14.8244 133.823 15.77H135.823ZM135.012 12.7365C134.391 11.8493 133.474 11.41 132.393 11.41V13.41C132.872 13.41 133.155 13.5707 133.374 13.8835L135.012 12.7365ZM132.393 11.41C131.222 11.41 130.24 11.8957 129.547 12.8376L131.159 14.0224C131.466 13.6043 131.844 13.41 132.393 13.41V11.41ZM129.544 12.8418C128.876 13.7603 128.633 15.0716 128.633 16.58H130.633C130.633 15.2084 130.87 14.4197 131.162 14.0182L129.544 12.8418ZM128.633 16.58C128.633 17.784 128.749 18.9183 128.987 19.979L130.939 19.541C130.737 18.6417 130.633 17.656 130.633 16.58H128.633ZM128.988 19.9834C129.224 21.0127 129.605 22.1479 130.12 23.3846L131.966 22.6154C131.481 21.4521 131.142 20.4273 130.938 19.5366L128.988 19.9834ZM131.043 22H126.633V24H131.043V22ZM127.575 22.6637C127.089 21.3025 126.722 20.0085 126.473 18.7809L124.513 19.1791C124.784 20.5115 125.177 21.8975 125.691 23.3363L127.575 22.6637ZM126.476 18.7985C126.25 17.5737 126.133 16.117 126.133 14.42H124.133C124.133 16.203 124.256 17.7863 124.51 19.1615L126.476 18.7985ZM126.133 14.42C126.133 11.759 126.599 9.79381 127.428 8.42926L125.718 7.39074C124.628 9.18619 124.133 11.561 124.133 14.42H126.133ZM127.428 8.42926C128.319 6.96263 129.315 5.99364 130.391 5.4388L129.475 3.6612C127.991 4.42636 126.747 5.69737 125.718 7.39074L127.428 8.42926ZM130.402 5.43312C131.604 4.79484 133.115 4.20811 134.949 3.68114L134.397 1.75886C132.472 2.31189 130.822 2.94516 129.464 3.66688L130.402 5.43312ZM134.948 3.68152C136.218 3.31875 137.203 2.97826 137.85 2.65443L136.956 0.865572C136.484 1.10174 135.649 1.40125 134.398 1.75847L134.948 3.68152ZM137.838 2.66055C138.623 2.28142 139.218 1.67564 139.449 0.819973L137.517 0.300025C137.468 0.484358 137.343 0.678576 136.968 0.859449L137.838 2.66055ZM138.483 1.56H143.073V-0.440001H138.483V1.56ZM142.075 0.49348C142.009 1.49014 141.679 2.21952 141.136 2.76289L142.55 4.17711C143.487 3.24048 143.977 2.02986 144.071 0.626518L142.075 0.49348ZM141.126 2.77264C140.512 3.40427 139.777 3.88512 138.908 4.21522L139.618 6.08478C140.75 5.65488 141.734 5.01573 142.56 4.16735L141.126 2.77264ZM138.908 4.21522C137.955 4.57716 136.684 4.96668 135.082 5.382L135.584 7.318C137.222 6.89332 138.571 6.48284 139.618 6.08478L138.908 4.21522ZM135.084 5.38161C133.754 5.72404 132.672 6.02989 131.844 6.29896L132.462 8.20103C133.234 7.95011 134.272 7.65596 135.583 7.31839L135.084 5.38161ZM131.844 6.29896C130.952 6.58871 130.139 6.99383 129.409 7.51798L130.577 9.14201C131.127 8.74617 131.754 8.43128 132.462 8.20103L131.844 6.29896ZM129.397 7.5269C128.616 8.1069 128.06 8.86558 127.754 9.78377L129.652 10.4162C129.826 9.89442 130.131 9.4731 130.589 9.1331L129.397 7.5269ZM129.503 10.7C129.796 10.3098 130.186 10.0248 130.707 9.84595L130.059 7.95405C129.181 8.25516 128.45 8.7702 127.903 9.5L129.503 10.7ZM130.731 9.83742C131.327 9.61603 131.91 9.51 132.483 9.51V7.51C131.656 7.51 130.839 7.66397 130.035 7.96257L130.731 9.83742ZM132.483 9.51C133.441 9.51 134.189 9.70064 134.771 10.0318C135.347 10.3593 135.819 10.8571 136.181 11.5713L137.965 10.6687C137.447 9.64292 136.714 8.83572 135.76 8.29321C134.812 7.75436 133.705 7.51 132.483 7.51V9.51ZM137.953 11.5953C138.672 10.265 139.981 9.51 142.203 9.51V7.51C139.466 7.51 137.355 8.49503 136.193 10.6447L137.953 11.5953ZM153.48 23L152.526 23.2995L152.746 24H153.48V23ZM152.22 17.84L151.233 17.9989L151.235 18.0118L152.22 17.84ZM152.82 4.1L151.94 3.62507V3.62507L152.82 4.1ZM155.61 1.22L155.128 0.343762L155.122 0.347241L155.61 1.22ZM163.71 1.22L163.222 2.09278L163.228 2.09622L163.71 1.22ZM166.53 4.1L165.65 4.57494L165.653 4.58083L166.53 4.1ZM167.1 17.87L166.114 17.702L166.113 17.7111L167.1 17.87ZM165.87 23V24H166.599L166.822 23.306L165.87 23ZM161.55 23L160.592 22.7152L160.21 24H161.55V23ZM162.18 5.36L161.38 5.96L161.385 5.96632L161.39 5.97257L162.18 5.36ZM157.17 5.36L156.38 4.74743L156.375 4.75368L156.37 4.76L157.17 5.36ZM157.83 23V24H159.171L158.789 22.7152L157.83 23ZM154.434 22.7005C153.907 21.021 153.498 19.3436 153.205 17.6682L151.235 18.0118C151.543 19.7764 151.973 21.539 152.526 23.2995L154.434 22.7005ZM153.208 17.6811C152.938 16.0029 152.8 14.1271 152.8 12.05H150.8C150.8 14.2129 150.943 16.1971 151.233 17.9989L153.208 17.6811ZM152.8 12.05V8.6H150.8V12.05H152.8ZM152.8 8.6C152.8 6.99042 153.114 5.66076 153.7 4.57493L151.94 3.62507C151.166 5.05924 150.8 6.72958 150.8 8.6H152.8ZM153.7 4.57493C154.296 3.47174 155.094 2.65449 156.098 2.09276L155.122 0.347241C153.766 1.10551 152.705 2.20826 151.94 3.62507L153.7 4.57493ZM156.092 2.09622C157.129 1.52606 158.32 1.23 159.69 1.23V-0.770002C158.021 -0.770002 156.492 -0.406064 155.128 0.343784L156.092 2.09622ZM159.69 1.23C161.038 1.23 162.207 1.52505 163.222 2.09276L164.198 0.347242C162.853 -0.405052 161.342 -0.770002 159.69 -0.770002V1.23ZM163.228 2.09622C164.252 2.65919 165.057 3.4761 165.65 4.57493L167.41 3.62507C166.643 2.2039 165.569 1.10081 164.192 0.343784L163.228 2.09622ZM165.653 4.58083C166.237 5.64477 166.55 6.95201 166.55 8.54H168.55C168.55 6.68799 168.184 5.03523 167.407 3.61917L165.653 4.58083ZM166.55 8.54V12.05H168.55V8.54H166.55ZM166.55 12.05C166.55 14.1238 166.403 16.0066 166.115 17.702L168.086 18.038C168.397 16.2134 168.55 14.2162 168.55 12.05H166.55ZM166.113 17.7111C165.841 19.4012 165.443 21.062 164.918 22.694L166.822 23.306C167.378 21.578 167.8 19.8188 168.088 18.0289L166.113 17.7111ZM165.87 22H161.55V24H165.87V22ZM162.509 23.2848C163.577 19.6916 164.11 16.0057 164.11 12.23H162.11C162.11 15.8143 161.604 19.3084 160.592 22.7152L162.509 23.2848ZM164.11 12.23V8.78H162.11V12.23H164.11ZM164.11 8.78C164.11 7.17702 163.777 5.78743 162.971 4.74743L161.39 5.97257C161.824 6.53257 162.11 7.42298 162.11 8.78H164.11ZM162.98 4.76C162.179 3.69108 161.043 3.16 159.69 3.16V5.16C160.458 5.16 160.982 5.42892 161.38 5.96L162.98 4.76ZM159.69 3.16C158.338 3.16 157.199 3.6899 156.38 4.74743L157.961 5.97257C158.381 5.4301 158.922 5.16 159.69 5.16V3.16ZM156.37 4.76C155.59 5.80042 155.27 7.19646 155.27 8.81H157.27C157.27 7.42354 157.551 6.51958 157.97 5.96L156.37 4.76ZM155.27 8.81V12.23H157.27V8.81H155.27ZM155.27 12.23C155.27 16.0057 155.804 19.6916 156.872 23.2848L158.789 22.7152C157.777 19.3084 157.27 15.8143 157.27 12.23H155.27ZM157.83 22H153.48V24H157.83V22ZM173.597 21.29L172.905 22.0122L172.91 22.0172L172.916 22.0221L173.597 21.29ZM171.467 0.589999V-0.410001H170.467V0.589999H171.467ZM175.907 0.589999H176.907V-0.410001H175.907V0.589999ZM176.897 18.53L176.19 19.2371L176.195 19.2425L176.201 19.2479L176.897 18.53ZM181.847 18.65L182.494 19.4125L182.496 19.4108L181.847 18.65ZM182.597 14.84L181.657 15.1817L181.664 15.2003L181.671 15.2186L182.597 14.84ZM181.817 13.25L182.682 12.7479L182.678 12.7417L182.674 12.7355L181.817 13.25ZM180.557 8.42V7.42H179.63L179.56 8.34474L180.557 8.42ZM184.937 8.42H185.937V7.42H184.937V8.42ZM185.207 10.4L184.258 10.7162L184.265 10.7378L184.274 10.759L185.207 10.4ZM186.107 12.23L186.982 11.7463L186.979 11.7401L186.975 11.7339L186.107 12.23ZM187.067 14.3L186.124 14.6344L186.128 14.6443L187.067 14.3ZM186.407 19.97L185.567 19.4267L186.407 19.97ZM183.587 22.4L183.146 21.5026L183.14 21.5056L183.587 22.4ZM179.417 22.3C177.166 22.3 175.491 21.6868 174.278 20.5579L172.916 22.0221C174.583 23.5732 176.788 24.3 179.417 24.3V22.3ZM174.289 20.5678C173.108 19.4368 172.467 17.8418 172.467 15.65H170.467C170.467 18.2582 171.246 20.4232 172.905 22.0122L174.289 20.5678ZM172.467 15.65V0.589999H170.467V15.65H172.467ZM171.467 1.59H175.907V-0.410001H171.467V1.59ZM174.907 0.589999V15.71H176.907V0.589999H174.907ZM174.907 15.71C174.907 17.1105 175.29 18.3371 176.19 19.2371L177.604 17.8229C177.184 17.4029 176.907 16.7495 176.907 15.71H174.907ZM176.201 19.2479C177.065 20.0855 178.152 20.49 179.387 20.49V18.49C178.622 18.49 178.049 18.2545 177.593 17.8121L176.201 19.2479ZM179.387 20.49C180.571 20.49 181.629 20.1461 182.494 19.4125L181.2 17.8875C180.745 18.2739 180.163 18.49 179.387 18.49V20.49ZM182.496 19.4108C183.4 18.6393 183.867 17.6204 183.867 16.43H181.867C181.867 17.0396 181.653 17.5007 181.198 17.8892L182.496 19.4108ZM183.867 16.43C183.867 15.7177 183.764 15.052 183.522 14.4614L181.671 15.2186C181.79 15.508 181.867 15.9023 181.867 16.43H183.867ZM183.537 14.4983C183.349 13.9817 183.058 13.3951 182.682 12.7479L180.952 13.7521C181.296 14.3449 181.525 14.8183 181.657 15.1817L183.537 14.4983ZM182.674 12.7355C182.222 11.982 181.909 11.3119 181.718 10.7222L179.815 11.3378C180.065 12.1081 180.452 12.918 180.959 13.7645L182.674 12.7355ZM181.718 10.7222C181.553 10.2106 181.48 9.48307 181.554 8.49526L179.56 8.34474C179.474 9.47693 179.541 10.4894 179.815 11.3378L181.718 10.7222ZM180.557 9.42H184.937V7.42H180.557V9.42ZM183.937 8.42C183.937 9.27057 184.034 10.0443 184.258 10.7162L186.156 10.0838C186.02 9.67568 185.937 9.12943 185.937 8.42H183.937ZM184.274 10.759C184.498 11.3421 184.824 11.9998 185.239 12.7261L186.975 11.7339C186.59 11.0602 186.316 10.4979 186.14 10.041L184.274 10.759ZM185.232 12.7137C185.633 13.44 185.927 14.0792 186.124 14.6344L188.009 13.9656C187.766 13.2808 187.421 12.54 186.982 11.7463L185.232 12.7137ZM186.128 14.6443C186.293 15.0932 186.397 15.7444 186.397 16.64H188.397C188.397 15.6156 188.281 14.7068 188.006 13.9557L186.128 14.6443ZM186.397 16.64C186.397 17.6447 186.124 18.5665 185.567 19.4267L187.246 20.5133C188.01 19.3335 188.397 18.0353 188.397 16.64H186.397ZM185.567 19.4267C185.017 20.2773 184.223 20.9727 183.146 21.5026L184.028 23.2973C185.391 22.6273 186.477 21.7027 187.246 20.5133L185.567 19.4267ZM183.14 21.5056C182.101 22.0248 180.869 22.3 179.417 22.3V24.3C181.125 24.3 182.673 23.9752 184.034 23.2944L183.14 21.5056ZM40.4185 65L39.4346 65.1789L39.5839 66H40.4185V65ZM38.5585 62.66L38.1394 63.568L38.1467 63.5713L38.154 63.5745L38.5585 62.66ZM27.3085 61.94H26.3085V62.94H27.3085V61.94ZM27.3085 58.61V57.61H26.3085V58.61H27.3085ZM29.5585 58.61V59.61H33.324L30.0546 57.7418L29.5585 58.61ZM26.1685 55.19L25.296 55.6786L25.2999 55.6855L25.3038 55.6924L26.1685 55.19ZM25.8385 45.8L26.7237 46.2651L26.7269 46.259L25.8385 45.8ZM28.3285 43.13L27.8414 42.2566L28.3285 43.13ZM34.8985 43.01L34.4365 43.8969L34.4475 43.9026L34.4586 43.9081L34.8985 43.01ZM37.0285 45.11L36.1263 45.5415L36.9887 47.3447L37.9147 45.5733L37.0285 45.11ZM39.1885 43.04L39.6429 43.9308L39.6501 43.9271L39.6572 43.9233L39.1885 43.04ZM46.0885 43.16L45.6028 44.0342L45.6096 44.0379L46.0885 43.16ZM48.6685 45.68L47.8011 46.1779L47.8082 46.1898L48.6685 45.68ZM48.6685 53.09L49.5246 53.6069L49.5288 53.5998L48.6685 53.09ZM45.9985 55.58L46.4583 56.468L46.4642 56.4649L45.9985 55.58ZM38.3485 55.58L37.8886 56.468L37.895 56.4713L38.3485 55.58ZM35.6785 53.18L34.8268 53.7041L34.8327 53.7137L34.8389 53.7233L35.6785 53.18ZM34.0585 46.88L33.2722 47.4978L33.2776 47.5048L33.2832 47.5117L34.0585 46.88ZM30.1885 47.09L30.9942 47.6824L31.0022 47.6712L30.1885 47.09ZM31.4785 56L30.7875 56.7229L30.7928 56.7279L31.4785 56ZM36.5785 58.25L36.4799 59.2452L36.4879 59.2459L36.5785 58.25ZM37.5685 58.34L37.6769 57.3459L37.668 57.3449L37.659 57.3441L37.5685 58.34ZM42.7885 60.38L42.13 61.1326L42.1362 61.138L42.1425 61.1434L42.7885 60.38ZM44.9485 65V66H46.0217L45.946 64.9295L44.9485 65ZM39.9385 51.8L39.1964 52.4703L39.2022 52.4768L39.2082 52.4832L39.9385 51.8ZM44.3785 51.83L45.1095 52.5123L45.1151 52.5063L45.1206 52.5003L44.3785 51.83ZM44.3785 46.94L43.6244 47.5968L43.6357 47.6097L43.6474 47.6223L44.3785 46.94ZM39.9385 46.94L39.2082 46.2568L39.2074 46.2577L39.9385 46.94ZM41.4023 64.8211C41.1418 63.3884 40.2998 62.3368 38.963 61.7455L38.154 63.5745C38.8971 63.9032 39.2951 64.4116 39.4346 65.1789L41.4023 64.8211ZM38.9775 61.752C37.7706 61.195 36.3381 60.94 34.7185 60.94V62.94C36.1389 62.94 37.2664 63.165 38.1394 63.568L38.9775 61.752ZM34.7185 60.94H27.3085V62.94H34.7185V60.94ZM28.3085 61.94V58.61H26.3085V61.94H28.3085ZM27.3085 59.61H29.5585V57.61H27.3085V59.61ZM30.0546 57.7418C28.817 57.0345 27.8103 56.025 27.0331 54.6876L25.3038 55.6924C26.2467 57.3149 27.5 58.5855 29.0623 59.4782L30.0546 57.7418ZM27.041 54.7014C26.2886 53.3578 25.9085 51.8773 25.9085 50.24H23.9085C23.9085 52.2027 24.3684 54.0222 25.296 55.6786L27.041 54.7014ZM25.9085 50.24C25.9085 48.5699 26.2001 47.2617 26.7237 46.2651L24.9532 45.3349C24.2369 46.6983 23.9085 48.3501 23.9085 50.24H25.9085ZM26.7269 46.259C27.2692 45.2094 27.9695 44.4752 28.8156 44.0034L27.8414 42.2566C26.6075 42.9448 25.6477 43.9906 24.9501 45.341L26.7269 46.259ZM28.8156 44.0034C29.6979 43.5113 30.6787 43.26 31.7785 43.26V41.26C30.3582 41.26 29.039 41.5887 27.8414 42.2566L28.8156 44.0034ZM31.7785 43.26C32.7434 43.26 33.6242 43.4738 34.4365 43.8969L35.3604 42.1231C34.2527 41.5462 33.0535 41.26 31.7785 41.26V43.26ZM34.4586 43.9081C35.2515 44.2964 35.7905 44.8393 36.1263 45.5415L37.9306 44.6785C37.3864 43.5407 36.5054 42.6836 35.3383 42.1119L34.4586 43.9081ZM37.9147 45.5733C38.2683 44.8968 38.8268 44.3471 39.6429 43.9308L38.734 42.1492C37.5901 42.7329 36.7087 43.5632 36.1423 44.6467L37.9147 45.5733ZM39.6572 43.9233C40.4837 43.4848 41.4012 43.26 42.4285 43.26V41.26C41.0958 41.26 39.8533 41.5552 38.7198 42.1567L39.6572 43.9233ZM42.4285 43.26C43.6361 43.26 44.686 43.5248 45.6028 44.0342L46.5741 42.2858C45.3309 41.5952 43.9409 41.26 42.4285 41.26V43.26ZM45.6096 44.0379C46.5486 44.5501 47.2737 45.259 47.8012 46.1779L49.5357 45.1821C48.8232 43.941 47.8283 42.9699 46.5673 42.2821L45.6096 44.0379ZM47.8082 46.1898C48.3452 47.096 48.6285 48.1654 48.6285 49.43H50.6285C50.6285 47.8546 50.2717 46.424 49.5288 45.1702L47.8082 46.1898ZM48.6285 49.43C48.6285 50.6261 48.3492 51.6673 47.8082 52.5802L49.5288 53.5998C50.2678 52.3527 50.6285 50.9539 50.6285 49.43H48.6285ZM47.8124 52.5731C47.2705 53.4707 46.5184 54.1763 45.5327 54.6951L46.4642 56.4649C47.7586 55.7837 48.7865 54.8293 49.5245 53.6069L47.8124 52.5731ZM45.5386 54.692C44.5778 55.1896 43.4688 55.45 42.1885 55.45V57.45C43.7481 57.45 45.1792 57.1304 46.4583 56.468L45.5386 54.692ZM42.1885 55.45C40.9085 55.45 39.7866 55.1897 38.8019 54.6887L37.895 56.4713C39.1904 57.1303 40.6285 57.45 42.1885 57.45V55.45ZM38.8083 54.692C37.8366 54.1888 37.0799 53.5051 36.5181 52.6367L34.8389 53.7233C35.597 54.8949 36.6204 55.8112 37.8886 56.468L38.8083 54.692ZM36.5301 52.6559C35.995 51.7863 35.7185 50.7905 35.7185 49.64H33.7185C33.7185 51.1295 34.082 52.4937 34.8268 53.7041L36.5301 52.6559ZM35.7185 49.64V49.04H33.7185V49.64H35.7185ZM35.7185 49.04C35.7185 47.978 35.457 47.0133 34.8337 46.2483L33.2832 47.5117C33.5399 47.8267 33.7185 48.302 33.7185 49.04H35.7185ZM34.8448 46.2622C34.201 45.4428 33.3016 45.04 32.2585 45.04V47.04C32.7354 47.04 33.036 47.1972 33.2722 47.4978L34.8448 46.2622ZM32.2585 45.04C31.0643 45.04 30.0675 45.5389 29.3747 46.5088L31.0022 47.6712C31.3094 47.2411 31.6926 47.04 32.2585 47.04V45.04ZM29.3828 46.4976C28.6936 47.4349 28.4385 48.7658 28.4385 50.3H30.4385C30.4385 48.9142 30.6833 48.1051 30.9941 47.6824L29.3828 46.4976ZM28.4385 50.3C28.4385 52.9795 29.1714 55.1781 30.7875 56.7229L32.1695 55.2771C31.0655 54.2219 30.4385 52.6205 30.4385 50.3H28.4385ZM30.7928 56.7279C32.3453 58.1904 34.2567 59.025 36.4799 59.2451L36.677 57.2549C34.8603 57.075 33.3716 56.4096 32.1642 55.2721L30.7928 56.7279ZM36.4879 59.2459L37.4779 59.3359L37.659 57.3441L36.669 57.2541L36.4879 59.2459ZM37.46 59.3341C39.5172 59.5585 41.0447 60.183 42.13 61.1326L43.447 59.6274C41.9722 58.337 40.0197 57.6015 37.6769 57.3459L37.46 59.3341ZM42.1425 61.1434C43.2025 62.0403 43.8266 63.3111 43.951 65.0705L45.946 64.9295C45.7904 62.7289 44.9744 60.9197 43.4344 59.6166L42.1425 61.1434ZM44.9485 64H40.4185V66H44.9485V64ZM38.0985 49.37C38.0985 50.5662 38.4388 51.6316 39.1964 52.4703L40.6806 51.1297C40.3181 50.7284 40.0985 50.1738 40.0985 49.37H38.0985ZM39.2082 52.4832C39.9942 53.3234 41.0175 53.73 42.1885 53.73V51.73C41.5194 51.73 41.0427 51.5166 40.6687 51.1168L39.2082 52.4832ZM42.1885 53.73C43.3359 53.73 44.341 53.3357 45.1095 52.5123L43.6474 51.1477C43.2959 51.5243 42.8411 51.73 42.1885 51.73V53.73ZM45.1206 52.5003C45.8814 51.658 46.2185 50.5803 46.2185 49.37H44.2185C44.2185 50.1997 43.9956 50.762 43.6364 51.1597L45.1206 52.5003ZM46.2185 49.37C46.2185 48.1611 45.8818 47.0851 45.1095 46.2577L43.6474 47.6223C43.9952 47.9949 44.2185 48.5389 44.2185 49.37H46.2185ZM45.1326 46.2832C44.3788 45.4177 43.3592 45.01 42.1885 45.01V47.01C42.8578 47.01 43.2982 47.2223 43.6244 47.5968L45.1326 46.2832ZM42.1885 45.01C41.0175 45.01 39.9942 45.4166 39.2082 46.2568L40.6687 47.6232C41.0427 47.2234 41.5194 47.01 42.1885 47.01V45.01ZM39.2074 46.2577C38.4352 47.0851 38.0985 48.1611 38.0985 49.37H40.0985C40.0985 48.5389 40.3218 47.9949 40.6695 47.6223L39.2074 46.2577ZM61.0313 42.56H62.0313V41.56H61.0313V42.56ZM61.3613 44.99L60.4049 45.2822L61.3613 44.99ZM62.2013 46.88L61.3551 47.4128L61.362 47.4238L61.3692 47.4347L62.2013 46.88ZM63.6113 48.83L62.8163 49.4367L62.82 49.4414L63.6113 48.83ZM65.2313 51.17L64.3694 51.677L64.3782 51.6921L64.3876 51.7069L65.2313 51.17ZM66.2813 53.63L65.3198 53.9047L65.3223 53.9137L65.3251 53.9227L66.2813 53.63ZM65.6513 61.55L64.7864 61.0478L64.7805 61.0584L65.6513 61.55ZM62.7713 64.37L63.2303 65.2584L63.2358 65.2555L62.7713 64.37ZM54.6713 64.34L54.2007 65.2224L54.6713 64.34ZM51.8213 61.52L50.9444 62.0009L50.9505 62.0116L51.8213 61.52ZM51.2213 53.72L51.2558 52.7206L50.4406 52.6925L50.2492 53.4854L51.2213 53.72ZM55.5713 53.87L56.5494 54.0781L56.7976 52.9117L55.6058 52.8706L55.5713 53.87ZM56.1713 60.08L55.3576 60.6612L55.3621 60.6676L55.3667 60.6739L56.1713 60.08ZM61.2413 60.23L60.4664 59.5979L60.4645 59.6002L61.2413 60.23ZM62.2013 56.96L63.2013 56.9741V56.96H62.2013ZM61.5713 54.05L60.6725 54.4884L60.679 54.5017L60.6859 54.5148L61.5713 54.05ZM59.7113 51.17L60.5061 50.5631L60.5006 50.5561L59.7113 51.17ZM58.0013 48.74L57.1375 49.2439L57.1427 49.2527L57.148 49.2614L58.0013 48.74ZM56.9213 46.13L55.957 46.3947L55.9594 46.4035L55.9619 46.4122L56.9213 46.13ZM56.5613 42.56V41.56H55.5903L55.5617 42.5306L56.5613 42.56ZM60.0313 42.56C60.0313 43.5403 60.151 44.4511 60.4049 45.2822L62.3176 44.6978C62.1316 44.0889 62.0313 43.3797 62.0313 42.56H60.0313ZM60.4049 45.2822C60.6463 46.0722 60.9603 46.7858 61.3551 47.4128L63.0475 46.3472C62.7623 45.8942 62.5163 45.3478 62.3176 44.6978L60.4049 45.2822ZM61.3692 47.4347C61.7451 47.9985 62.2288 48.6668 62.8163 49.4367L64.4062 48.2233C63.8337 47.4732 63.3774 46.8414 63.0333 46.3253L61.3692 47.4347ZM62.82 49.4414C63.4838 50.3005 63.9973 51.0446 64.3694 51.677L66.0932 50.663C65.6652 49.9354 65.0988 49.1195 64.4026 48.2186L62.82 49.4414ZM64.3876 51.7069C64.743 52.2653 65.0587 52.991 65.3198 53.9047L67.2428 53.3553C66.9439 52.309 66.5596 51.3947 66.075 50.6331L64.3876 51.7069ZM65.3251 53.9227C65.5895 54.7864 65.7313 55.8239 65.7313 57.05H67.7313C67.7313 55.6761 67.5731 54.4336 67.2375 53.3373L65.3251 53.9227ZM65.7313 57.05C65.7313 58.6735 65.3999 59.9915 64.7865 61.0479L66.5161 62.0521C67.3427 60.6285 67.7313 58.9465 67.7313 57.05H65.7313ZM64.7805 61.0584C64.1718 62.1367 63.3503 62.937 62.3067 63.4845L63.2358 65.2555C64.6323 64.523 65.7308 63.4433 66.5221 62.0416L64.7805 61.0584ZM62.3123 63.4816C61.2693 64.0205 60.0795 64.3 58.7213 64.3V66.3C60.3631 66.3 61.8733 65.9595 63.2303 65.2584L62.3123 63.4816ZM58.7213 64.3C57.3682 64.3 56.1826 64.0127 55.1419 63.4576L54.2007 65.2224C55.56 65.9473 57.0744 66.3 58.7213 66.3V64.3ZM55.1419 63.4576C54.1178 62.9115 53.3032 62.1109 52.6921 61.0284L50.9505 62.0116C51.7394 63.4091 52.8247 64.4885 54.2007 65.2224L55.1419 63.4576ZM52.6981 61.0392C52.1164 59.9784 51.8013 58.6524 51.8013 57.02H49.8013C49.8013 58.9076 50.1662 60.5816 50.9445 62.0008L52.6981 61.0392ZM51.8013 57.02C51.8013 56.0696 51.9293 55.0488 52.1934 53.9546L50.2492 53.4854C49.9533 54.7112 49.8013 55.8904 49.8013 57.02H51.8013ZM51.1868 54.7194L55.5368 54.8694L55.6058 52.8706L51.2558 52.7206L51.1868 54.7194ZM54.5932 53.6619C54.3793 54.6673 54.2713 55.667 54.2713 56.66H56.2713C56.2713 55.813 56.3633 54.9527 56.5494 54.0781L54.5932 53.6619ZM54.2713 56.66C54.2713 58.2284 54.597 59.5965 55.3576 60.6612L56.985 59.4988C56.5456 58.8835 56.2713 57.9716 56.2713 56.66H54.2713ZM55.3667 60.6739C56.1868 61.7849 57.3538 62.34 58.7513 62.34V60.34C57.9488 60.34 57.3958 60.0551 56.9759 59.4861L55.3667 60.6739ZM58.7513 62.34C60.0742 62.34 61.2052 61.8624 62.0181 60.8598L60.4645 59.6002C60.0774 60.0776 59.5483 60.34 58.7513 60.34V62.34ZM62.0162 60.8621C62.8303 59.8642 63.1794 58.5216 63.2012 56.9741L61.2014 56.9459C61.1832 58.2384 60.8923 59.0758 60.4664 59.5979L62.0162 60.8621ZM63.2013 56.96C63.2013 55.6995 62.9691 54.5612 62.4567 53.5852L60.6859 54.5148C61.0135 55.1388 61.2013 55.9405 61.2013 56.96H63.2013ZM62.4701 53.6116C62.0303 52.71 61.3679 51.6917 60.5061 50.5631L58.9165 51.7769C59.7347 52.8483 60.3123 53.75 60.6725 54.4884L62.4701 53.6116ZM60.5006 50.5561C59.8163 49.6761 59.2696 48.8977 58.8546 48.2185L57.148 49.2614C57.613 50.0223 58.2063 50.8639 58.9219 51.7839L60.5006 50.5561ZM58.8651 48.2361C58.4951 47.6019 58.1638 46.8105 57.8807 45.8478L55.9619 46.4122C56.2788 47.4895 56.6674 48.4381 57.1375 49.2439L58.8651 48.2361ZM57.8856 45.8653C57.6382 44.9639 57.523 43.877 57.5609 42.5894L55.5617 42.5306C55.5196 43.963 55.6444 45.2561 55.957 46.3947L57.8856 45.8653ZM56.5613 43.56H61.0313V41.56H56.5613V43.56ZM72.3141 63.23L71.6172 63.9472L71.6222 63.952L72.3141 63.23ZM70.1841 57.62H71.1841L71.1841 57.617L70.1841 57.62ZM70.1541 47.66H69.1541L69.1541 47.663L70.1541 47.66ZM70.8441 44.93L69.9811 44.4248L69.9772 44.4315L70.8441 44.93ZM72.8541 43.01L73.3258 43.8918L73.3336 43.8876L73.3415 43.8832L72.8541 43.01ZM78.6441 42.89L78.2142 43.7929L78.223 43.7971L78.2319 43.8011L78.6441 42.89ZM80.5641 44.66L79.6879 45.1419L80.595 46.7912L81.4539 45.1163L80.5641 44.66ZM86.4441 42.5H87.4441V41.7671L86.7452 41.5464L86.4441 42.5ZM86.4441 46.31L86.2598 47.2929L87.4441 47.5149V46.31H86.4441ZM83.5641 46.76L82.9309 45.986L82.922 45.9933L82.9133 46.0007L83.5641 46.76ZM82.9341 48.95V49.95H83.9341V48.95H82.9341ZM78.5241 48.95H77.5241V49.95H78.5241V48.95ZM77.9541 46.43L77.247 47.1371L77.2666 47.1567L77.2873 47.1752L77.9541 46.43ZM75.1641 46.43L75.8309 47.1752L75.8415 47.1657L75.8519 47.156L75.1641 46.43ZM74.5941 52.28H73.5941V54.996L75.3553 52.9285L74.5941 52.28ZM76.4241 50.99L76.0445 50.0648L76.036 50.0684L76.4241 50.99ZM82.8441 51.47L82.348 52.3382L82.3571 52.3435L82.3663 52.3485L82.8441 51.47ZM85.4841 54.11L84.6056 54.5878L84.6106 54.597L84.6159 54.6061L85.4841 54.11ZM85.4541 61.76L84.5925 61.2523L84.5898 61.2571L85.4541 61.76ZM82.6341 64.37L83.0872 65.2615L83.0927 65.2586L82.6341 64.37ZM75.6141 60.56L74.9404 61.299L74.9457 61.3038L74.9511 61.3086L75.6141 60.56ZM80.8941 60.53L81.5795 61.2582L81.5851 61.2529L81.5906 61.2476L80.8941 60.53ZM80.8941 55.34L80.187 56.0471L80.1977 56.0578L80.2087 56.0682L80.8941 55.34ZM75.6141 55.28L76.2879 56.019L75.6141 55.28ZM78.3141 64.3C75.9359 64.3 74.2113 63.6631 73.006 62.508L71.6222 63.952C73.2968 65.5569 75.5723 66.3 78.3141 66.3V64.3ZM73.011 62.5129C71.8215 61.3568 71.1841 59.7657 71.1841 57.62H69.1841C69.1841 60.1943 69.9667 62.3432 71.6172 63.9471L73.011 62.5129ZM71.1841 57.617L71.1541 47.657L69.1541 47.663L69.1841 57.623L71.1841 57.617ZM71.1541 47.66C71.1541 46.796 71.3472 46.0612 71.711 45.4285L69.9772 44.4315C69.421 45.3988 69.1541 46.484 69.1541 47.66H71.1541ZM71.7071 45.4352C72.0913 44.7788 72.6239 44.2672 73.3258 43.8918L72.3824 42.1282C71.3643 42.6728 70.5569 43.4412 69.9811 44.4248L71.7071 45.4352ZM73.3415 43.8832C74.0331 43.4972 74.851 43.29 75.8241 43.29V41.29C74.5572 41.29 73.3952 41.5628 72.3667 42.1368L73.3415 43.8832ZM75.8241 43.29C76.733 43.29 77.5236 43.464 78.2142 43.7929L79.074 41.9871C78.0847 41.516 76.9952 41.29 75.8241 41.29V43.29ZM78.2319 43.8011C78.877 44.0929 79.3532 44.5334 79.6879 45.1419L81.4403 44.1781C80.895 43.1866 80.0912 42.4471 79.0563 41.9789L78.2319 43.8011ZM81.4539 45.1163C81.7755 44.4893 82.189 44.0572 82.6864 43.774C83.1895 43.4876 83.8379 43.32 84.6741 43.32V41.32C83.5703 41.32 82.5637 41.5424 81.6968 42.036C80.8242 42.5328 80.1527 43.2707 79.6743 44.2037L81.4539 45.1163ZM84.6741 43.32C85.4532 43.32 85.9156 43.3818 86.143 43.4536L86.7452 41.5464C86.2126 41.3782 85.495 41.32 84.6741 41.32V43.32ZM85.4441 42.5V46.31H87.4441V42.5H85.4441ZM86.6284 45.3271C86.2285 45.2521 85.7728 45.22 85.2741 45.22V47.22C85.6954 47.22 86.0197 47.2479 86.2598 47.2929L86.6284 45.3271ZM85.2741 45.22C84.3983 45.22 83.588 45.4484 82.9309 45.986L84.1973 47.534C84.4203 47.3516 84.7499 47.22 85.2741 47.22V45.22ZM82.9133 46.0007C82.2433 46.575 81.9341 47.3576 81.9341 48.23H83.9341C83.9341 47.8624 84.0449 47.665 84.2149 47.5193L82.9133 46.0007ZM81.9341 48.23V48.95H83.9341V48.23H81.9341ZM82.9341 47.95H78.5241V49.95H82.9341V47.95ZM79.5241 48.95V47.78H77.5241V48.95H79.5241ZM79.5241 47.78C79.5241 46.9668 79.2352 46.2344 78.6209 45.6848L77.2873 47.1752C77.433 47.3056 77.5241 47.4732 77.5241 47.78H79.5241ZM78.6612 45.7229C78.094 45.1557 77.3702 44.89 76.5741 44.89V46.89C76.898 46.89 77.0942 46.9843 77.247 47.1371L78.6612 45.7229ZM76.5741 44.89C75.7778 44.89 75.0559 45.155 74.4764 45.704L75.8519 47.156C76.0323 46.985 76.2504 46.89 76.5741 46.89V44.89ZM74.4973 45.6848C73.8469 46.2667 73.5941 47.0745 73.5941 47.93H75.5941C75.5941 47.4655 75.7213 47.2733 75.8309 47.1752L74.4973 45.6848ZM73.5941 47.93V52.28H75.5941V47.93H73.5941ZM75.3553 52.9285C75.6987 52.5254 76.1728 52.1808 76.8122 51.9116L76.036 50.0684C75.1554 50.4392 74.4095 50.9546 73.8329 51.6315L75.3553 52.9285ZM76.8037 51.9152C77.4553 51.6478 78.1654 51.51 78.9441 51.51V49.51C77.9228 49.51 76.9529 49.6922 76.0445 50.0648L76.8037 51.9152ZM78.9441 51.51C80.2761 51.51 81.4001 51.7966 82.348 52.3382L83.3402 50.6018C82.0481 49.8634 80.5721 49.51 78.9441 49.51V51.51ZM82.3663 52.3485C83.3369 52.8763 84.0778 53.6172 84.6056 54.5878L86.3626 53.6322C85.6505 52.3228 84.6313 51.3037 83.3219 50.5915L82.3663 52.3485ZM84.6159 54.6061C85.1598 55.558 85.4441 56.6633 85.4441 57.95H87.4441C87.4441 56.3567 87.0884 54.902 86.3523 53.6139L84.6159 54.6061ZM85.4441 57.95C85.4441 59.2084 85.1537 60.3001 84.5926 61.2523L86.3156 62.2677C87.0746 60.9799 87.4441 59.5316 87.4441 57.95H85.4441ZM84.5898 61.2571C84.0547 62.1768 83.2632 62.92 82.1755 63.4814L83.0927 65.2586C84.485 64.54 85.5735 63.5432 86.3185 62.2629L84.5898 61.2571ZM82.181 63.4785C81.1282 64.0135 79.8498 64.3 78.3141 64.3V66.3C80.0984 66.3 81.7 65.9664 83.0872 65.2615L82.181 63.4785ZM73.5941 58.25C73.5941 59.4513 74.0526 60.4895 74.9404 61.299L76.2879 59.821C75.8156 59.3905 75.5941 58.8887 75.5941 58.25H73.5941ZM74.9511 61.3086C75.8585 62.1123 76.9847 62.49 78.2541 62.49V60.49C77.4035 60.49 76.7697 60.2477 76.2771 59.8114L74.9511 61.3086ZM78.2541 62.49C79.5461 62.49 80.685 62.1001 81.5795 61.2582L80.2087 59.8018C79.7432 60.24 79.1221 60.49 78.2541 60.49V62.49ZM81.5906 61.2476C82.4923 60.3723 82.9141 59.2291 82.9141 57.92H80.9141C80.9141 58.7709 80.6559 59.3677 80.1976 59.8124L81.5906 61.2476ZM82.9141 57.92C82.9141 56.6115 82.4922 55.4709 81.5795 54.6118L80.2087 56.0682C80.656 56.4891 80.9141 57.0685 80.9141 57.92H82.9141ZM81.6012 54.6329C80.7205 53.7522 79.5684 53.35 78.2541 53.35V55.35C79.1398 55.35 79.7477 55.6078 80.187 56.0471L81.6012 54.6329ZM78.2541 53.35C76.9708 53.35 75.8359 53.7245 74.9404 54.541L76.2879 56.019C76.7523 55.5955 77.3774 55.35 78.2541 55.35V53.35ZM74.9404 54.541C74.0287 55.3722 73.5941 56.4727 73.5941 57.74H75.5941C75.5941 56.9673 75.8395 56.4278 76.2879 56.019L74.9404 54.541ZM73.5941 57.74V58.25H75.5941V57.74H73.5941ZM93.2909 64.49L92.8672 65.3959L92.8793 65.4014L93.2909 64.49ZM90.4109 62.09L89.5739 62.6373L89.5788 62.6447L90.4109 62.09ZM89.5409 56.9L89.5817 55.9008L88.6864 55.8643L88.5522 56.7502L89.5409 56.9ZM93.9509 57.08L94.9387 57.236L95.1138 56.1266L93.9917 56.0808L93.9509 57.08ZM94.8509 60.62L94.1548 61.3379L94.1658 61.3486L94.1771 61.359L94.8509 60.62ZM100.161 60.62L100.846 61.3488L100.851 61.3434L100.857 61.3379L100.161 60.62ZM101.151 53.87H102.151V51.3844L100.43 53.1775L101.151 53.87ZM99.2909 55.04L98.9452 54.1016L98.937 54.1047L99.2909 55.04ZM93.2009 54.59L92.7278 55.471L92.7345 55.4746L93.2009 54.59ZM90.5909 52.04L89.7294 52.5477L90.5909 52.04ZM89.8409 45.14L88.8642 44.9256L88.8622 44.9347L88.8603 44.9439L89.8409 45.14ZM90.6509 42.53V41.53H89.9684L89.7197 42.1656L90.6509 42.53ZM95.0909 42.53L96.0331 42.865L96.5078 41.53H95.0909V42.53ZM95.0009 50.6L94.2497 51.2601L94.2604 51.2722L94.2714 51.2839L95.0009 50.6ZM100.191 50.63L100.887 51.3482L100.892 51.3427L100.898 51.3371L100.191 50.63ZM101.151 42.53V41.53H100.151V42.53H101.151ZM105.561 42.53H106.561V41.53H105.561V42.53ZM104.601 61.94L105.457 62.4569L105.461 62.4498L104.601 61.94ZM101.811 64.43L101.37 63.5326L101.364 63.5356L101.811 64.43ZM97.5509 64.33C96.0681 64.33 94.7924 64.0708 93.7025 63.5786L92.8793 65.4014C94.2694 66.0292 95.8337 66.33 97.5509 66.33V64.33ZM93.7146 63.5842C92.6204 63.0724 91.81 62.3859 91.243 61.5353L89.5788 62.6447C90.3718 63.8341 91.4814 64.7476 92.8672 65.3958L93.7146 63.5842ZM91.2479 61.5427C90.6793 60.6732 90.3909 59.6951 90.3909 58.58H88.3909C88.3909 60.0649 88.7825 61.4268 89.5739 62.6373L91.2479 61.5427ZM90.3909 58.58C90.3909 58.187 90.4341 57.6802 90.5296 57.0498L88.5522 56.7502C88.4477 57.4398 88.3909 58.053 88.3909 58.58H90.3909ZM89.5001 57.8992L93.9101 58.0792L93.9917 56.0808L89.5817 55.9008L89.5001 57.8992ZM92.9631 56.924C92.8992 57.3288 92.8609 57.6963 92.8609 58.01H94.8609C94.8609 57.8437 94.8826 57.5912 94.9387 57.236L92.9631 56.924ZM92.8609 58.01C92.8609 59.3233 93.263 60.4731 94.1548 61.3379L95.547 59.9021C95.1189 59.4869 94.8609 58.8967 94.8609 58.01H92.8609ZM94.1771 61.359C95.0761 62.1786 96.2231 62.55 97.5209 62.55V60.55C96.6187 60.55 95.9857 60.3014 95.5247 59.881L94.1771 61.359ZM97.5209 62.55C98.8176 62.55 99.962 62.1789 100.846 61.3488L99.4762 59.8912C99.0398 60.3011 98.4242 60.55 97.5209 60.55V62.55ZM100.857 61.3379C101.756 60.4663 102.151 59.2914 102.151 57.95H100.151C100.151 58.8886 99.886 59.4937 99.4648 59.9021L100.857 61.3379ZM102.151 57.95V53.87H100.151V57.95H102.151ZM100.43 53.1775C100.071 53.5511 99.5868 53.8653 98.9452 54.1017L99.6366 55.9783C100.515 55.6547 101.271 55.1889 101.872 54.5625L100.43 53.1775ZM98.937 54.1047C98.3269 54.3356 97.6194 54.46 96.8009 54.46V56.46C97.8224 56.46 98.7749 56.3044 99.6448 55.9753L98.937 54.1047ZM96.8009 54.46C95.6558 54.46 94.6169 54.2061 93.6673 53.7054L92.7345 55.4746C93.9849 56.1339 95.346 56.46 96.8009 56.46V54.46ZM93.674 53.709C92.7651 53.2209 92.0254 52.5046 91.4524 51.5323L89.7294 52.5477C90.4764 53.8154 91.4767 54.7991 92.7278 55.471L93.674 53.709ZM91.4524 51.5323C90.8986 50.5924 90.6009 49.4446 90.6009 48.05H88.6009C88.6009 49.7354 88.9632 51.2476 89.7294 52.5477L91.4524 51.5323ZM90.6009 48.05C90.6009 46.952 90.6783 46.0518 90.8215 45.3361L88.8603 44.9439C88.6834 45.8282 88.6009 46.868 88.6009 48.05H90.6009ZM90.8176 45.3544C90.9847 44.5935 91.238 43.7739 91.5821 42.8944L89.7197 42.1656C89.3438 43.1261 89.0571 44.0465 88.8642 44.9256L90.8176 45.3544ZM90.6509 43.53H95.0909V41.53H90.6509V43.53ZM94.1487 42.195C93.4771 44.0837 93.1309 45.9074 93.1309 47.66H95.1309C95.1309 46.1726 95.4247 44.5763 96.0331 42.865L94.1487 42.195ZM93.1309 47.66C93.1309 49.0893 93.4476 50.3473 94.2497 51.2601L95.7521 49.9399C95.3942 49.5327 95.1309 48.8307 95.1309 47.66H93.1309ZM94.2714 51.2839C95.1061 52.1744 96.2493 52.56 97.5509 52.56V50.56C96.6525 50.56 96.0957 50.3056 95.7304 49.9161L94.2714 51.2839ZM97.5509 52.56C98.8606 52.56 100.015 52.1924 100.887 51.3482L99.4951 49.9118C99.0865 50.3076 98.4812 50.56 97.5509 50.56V52.56ZM100.898 51.3371C101.774 50.4607 102.151 49.277 102.151 47.93H100.151C100.151 48.903 99.8874 49.5193 99.4838 49.9229L100.898 51.3371ZM102.151 47.93V42.53H100.151V47.93H102.151ZM101.151 43.53H105.561V41.53H101.151V43.53ZM104.561 42.53V58.25H106.561V42.53H104.561ZM104.561 58.25C104.561 59.4689 104.28 60.5196 103.741 61.4302L105.461 62.4498C106.202 61.2004 106.561 59.7911 106.561 58.25H104.561ZM103.745 61.4231C103.213 62.3033 102.435 63.0086 101.37 63.5326L102.252 65.3273C103.627 64.6514 104.708 63.6967 105.457 62.4569L103.745 61.4231ZM101.364 63.5356C100.33 64.0524 99.0696 64.33 97.5509 64.33V66.33C99.3122 66.33 100.892 66.0076 102.258 65.3244L101.364 63.5356ZM112.856 64.37L112.397 65.2584L112.856 64.37ZM110.066 61.82L109.208 62.3345L109.212 62.3415L110.066 61.82ZM109.466 55.61L109.508 54.6109L108.738 54.5786L108.51 55.3143L109.466 55.61ZM113.756 55.79L114.738 55.9759L114.953 54.8394L113.798 54.7909L113.756 55.79ZM114.476 60.38L113.737 61.0538L113.742 61.0592L113.747 61.0647L114.476 60.38ZM119.606 60.44L118.921 59.7112L118.915 59.7164L118.91 59.7218L119.606 60.44ZM120.596 49.43H121.596V49.4206L121.595 49.4111L120.596 49.43ZM119.666 47.03L118.983 47.7611L118.99 47.7672L118.997 47.7733L119.666 47.03ZM115.046 47.03L115.753 47.7371L115.046 47.03ZM114.326 50.63L114.352 51.6296L115.539 51.5978L115.306 50.4339L114.326 50.63ZM109.856 50.75L108.872 50.9289L109.025 51.7727L109.882 51.7496L109.856 50.75ZM110.696 45.35L111.517 45.9201L111.523 45.9123L110.696 45.35ZM113.456 43.07L113.865 43.9825L113.872 43.9793L113.456 43.07ZM121.316 43.13L120.868 44.0245L120.881 44.0306L121.316 43.13ZM124.046 45.59L123.192 46.1115L124.046 45.59ZM121.316 64.37L120.857 63.4816L121.316 64.37ZM117.026 64.3C115.578 64.3 114.35 64.0168 113.315 63.4816L112.397 65.2584C113.761 65.9632 115.313 66.3 117.026 66.3V64.3ZM113.315 63.4816C112.266 62.9397 111.477 62.2119 110.919 61.2986L109.212 62.3415C109.974 63.5881 111.045 64.5603 112.397 65.2584L113.315 63.4816ZM110.923 61.3055C110.365 60.375 110.076 59.3059 110.076 58.07H108.076C108.076 59.6341 108.446 61.065 109.208 62.3345L110.923 61.3055ZM110.076 58.07C110.076 57.3797 110.188 56.6593 110.421 55.9057L108.51 55.3143C108.224 56.2407 108.076 57.1604 108.076 58.07H110.076ZM109.424 56.6091L113.714 56.7891L113.798 54.7909L109.508 54.6109L109.424 56.6091ZM112.773 55.6041C112.627 56.378 112.546 57.0648 112.546 57.65H114.546C114.546 57.2352 114.605 56.682 114.738 55.9759L112.773 55.6041ZM112.546 57.65C112.546 58.9771 112.911 60.1482 113.737 61.0538L115.215 59.7062C114.8 59.2518 114.546 58.6029 114.546 57.65H112.546ZM113.747 61.0647C114.595 61.9681 115.743 62.37 117.056 62.37V60.37C116.168 60.37 115.596 60.1119 115.204 59.6953L113.747 61.0647ZM117.056 62.37C118.323 62.37 119.44 61.9925 120.301 61.1582L118.91 59.7218C118.491 60.1275 117.908 60.37 117.056 60.37V62.37ZM120.29 61.1688C121.208 60.307 121.596 59.108 121.596 57.74H119.596C119.596 58.7319 119.323 59.333 118.921 59.7112L120.29 61.1688ZM121.596 57.74V49.43H119.596V57.74H121.596ZM121.595 49.4111C121.572 48.1654 121.2 47.0652 120.335 46.2867L118.997 47.7733C119.332 48.0748 119.579 48.5746 119.596 49.4489L121.595 49.4111ZM120.348 46.2989C119.54 45.5448 118.526 45.19 117.386 45.19V47.19C118.085 47.19 118.591 47.3952 118.983 47.7611L120.348 46.2989ZM117.386 45.19C116.194 45.19 115.132 45.5292 114.338 46.3229L115.753 47.7371C116.079 47.4108 116.577 47.19 117.386 47.19V45.19ZM114.338 46.3229C113.545 47.1166 113.206 48.1781 113.206 49.37H115.206C115.206 48.5619 115.426 48.0634 115.753 47.7371L114.338 46.3229ZM113.206 49.37C113.206 49.8707 113.251 50.3567 113.345 50.8261L115.306 50.4339C115.24 50.1033 115.206 49.7493 115.206 49.37H113.206ZM114.299 49.6304L109.829 49.7504L109.882 51.7496L114.352 51.6296L114.299 49.6304ZM110.839 50.5711C110.73 49.9692 110.676 49.369 110.676 48.77H108.676C108.676 49.491 108.741 50.2108 108.872 50.9289L110.839 50.5711ZM110.676 48.77C110.676 47.6546 110.964 46.7176 111.517 45.9201L109.874 44.7799C109.067 45.9424 108.676 47.2854 108.676 48.77H110.676ZM111.523 45.9123C112.093 45.0735 112.865 44.4308 113.865 43.9825L113.047 42.1575C111.727 42.7492 110.658 43.6265 109.869 44.7877L111.523 45.9123ZM113.872 43.9793C114.907 43.5053 116.073 43.26 117.386 43.26V41.26C115.818 41.26 114.364 41.5547 113.039 42.1607L113.872 43.9793ZM117.386 43.26C118.71 43.26 119.864 43.5222 120.868 44.0244L121.763 42.2356C120.447 41.5778 118.981 41.26 117.386 41.26V43.26ZM120.881 44.0306C121.871 44.5086 122.634 45.1984 123.192 46.1115L124.899 45.0686C124.137 43.8215 123.08 42.8714 121.75 42.2294L120.881 44.0306ZM123.192 46.1115C123.742 47.0116 124.036 48.0952 124.036 49.4H126.036C126.036 47.7848 125.669 46.3284 124.899 45.0686L123.192 46.1115ZM124.036 49.4V57.74H126.036V49.4H124.036ZM124.036 57.74C124.036 59.1167 123.747 60.2727 123.204 61.2405L124.948 62.2195C125.684 60.9073 126.036 59.4033 126.036 57.74H124.036ZM123.204 61.2405C122.663 62.2041 121.889 62.9482 120.857 63.4816L121.775 65.2584C123.142 64.5518 124.209 63.5359 124.948 62.2195L123.204 61.2405ZM120.857 63.4816C119.827 64.0133 118.562 64.3 117.026 64.3V66.3C118.809 66.3 120.404 65.9667 121.775 65.2584L120.857 63.4816ZM132.194 64.4L131.746 65.2944L131.755 65.2987L131.764 65.3029L132.194 64.4ZM129.254 61.79L128.401 62.3133L128.407 62.3221L128.412 62.3308L129.254 61.79ZM129.974 53L129.234 52.3273L129.233 52.3279L129.974 53ZM134.684 50.54L134.846 51.5267L135.684 51.3886V50.54H134.684ZM134.384 47.63L133.542 48.1708L133.556 48.1913L133.57 48.2112L134.384 47.63ZM133.484 46.64L134.155 45.8985L134.151 45.8954L133.484 46.64ZM131.864 42.56V41.56H130.952L130.868 42.4678L131.864 42.56ZM136.274 42.56H137.274V41.56H136.274V42.56ZM136.604 44L135.75 44.5215L135.757 44.5324L135.764 44.5433L136.604 44ZM137.594 45.08L136.94 45.8369L136.95 45.8457L137.594 45.08ZM138.734 46.37L137.873 46.8787L137.878 46.8876L137.883 46.8964L138.734 46.37ZM139.124 50.75H138.124V51.513L138.86 51.7145L139.124 50.75ZM143.144 53.33L142.36 53.9517L142.366 53.9592L143.144 53.33ZM143.594 61.79L144.435 62.3308L144.439 62.324L143.594 61.79ZM140.624 64.4L141.059 65.3002L141.065 65.2973L140.624 64.4ZM133.724 60.53L133.027 61.2476L133.038 61.258L133.049 61.268L133.724 60.53ZM139.124 60.53L139.809 61.2582L139.81 61.2576L139.124 60.53ZM139.124 55.22L138.427 55.9376L138.432 55.9426L138.438 55.9476L139.124 55.22ZM133.724 55.22L133.038 54.4924L133.032 54.4974L133.027 54.5024L133.724 55.22ZM136.424 64.3C134.995 64.3 133.734 64.026 132.624 63.4971L131.764 65.3029C133.173 65.974 134.733 66.3 136.424 66.3V64.3ZM132.641 63.5056C131.555 62.9625 130.714 62.2117 130.095 61.2492L128.412 62.3308C129.234 63.6083 130.353 64.5975 131.746 65.2944L132.641 63.5056ZM130.106 61.2667C129.513 60.3006 129.204 59.1755 129.204 57.86H127.204C127.204 59.5045 127.595 60.9994 128.401 62.3133L130.106 61.2667ZM129.204 57.86C129.204 56.1403 129.719 54.7682 130.714 53.6721L129.233 52.3279C127.868 53.8318 127.204 55.6997 127.204 57.86H129.204ZM130.714 53.6727C131.746 52.5366 133.105 51.814 134.846 51.5267L134.521 49.5533C132.383 49.906 130.601 50.8234 129.234 52.3273L130.714 53.6727ZM135.684 50.54V48.74H133.684V50.54H135.684ZM135.684 48.74C135.684 48.1408 135.553 47.5471 135.197 47.0488L133.57 48.2112C133.614 48.2729 133.684 48.4192 133.684 48.74H135.684ZM135.225 47.0892C134.975 46.7012 134.601 46.3025 134.155 45.8985L132.813 47.3815C133.206 47.7375 133.432 47.9988 133.542 48.1708L135.225 47.0892ZM134.151 45.8954C133.639 45.4361 133.279 44.985 133.045 44.5478L131.282 45.4922C131.648 46.175 132.168 46.8039 132.816 47.3846L134.151 45.8954ZM133.045 44.5478C132.882 44.2442 132.766 43.6596 132.859 42.6522L130.868 42.4678C130.761 43.6204 130.845 44.6758 131.282 45.4922L133.045 44.5478ZM131.864 43.56H136.274V41.56H131.864V43.56ZM135.274 42.56C135.274 43.2703 135.402 43.9516 135.75 44.5215L137.457 43.4785C137.365 43.3284 137.274 43.0497 137.274 42.56H135.274ZM135.764 44.5433C136.053 44.9892 136.457 45.4193 136.94 45.8368L138.247 44.3232C137.851 43.9807 137.595 43.6908 137.443 43.4567L135.764 44.5433ZM136.95 45.8457C137.387 46.2122 137.684 46.5589 137.873 46.8787L139.595 45.8613C139.264 45.3011 138.801 44.7878 138.237 44.3143L136.95 45.8457ZM137.883 46.8964C138.004 47.0915 138.124 47.4777 138.124 48.17H140.124C140.124 47.3023 139.983 46.4885 139.584 45.8436L137.883 46.8964ZM138.124 48.17V50.75H140.124V48.17H138.124ZM138.86 51.7145C140.352 52.1233 141.504 52.8723 142.36 53.9517L143.927 52.7083C142.784 51.2677 141.255 50.2967 139.388 49.7855L138.86 51.7145ZM142.366 53.9592C143.23 55.0255 143.674 56.3081 143.674 57.86H145.674C145.674 55.8919 145.098 54.1545 143.921 52.7008L142.366 53.9592ZM143.674 57.86C143.674 59.1701 143.357 60.2913 142.748 61.256L144.439 62.324C145.27 61.0087 145.674 59.5099 145.674 57.86H143.674ZM142.752 61.2492C142.136 62.2078 141.288 62.9585 140.182 63.5027L141.065 65.2973C142.479 64.6016 143.611 63.6122 144.435 62.3308L142.752 61.2492ZM140.188 63.4998C139.101 64.0259 137.853 64.3 136.424 64.3V66.3C138.114 66.3 139.666 65.9741 141.059 65.3002L140.188 63.4998ZM131.704 57.86C131.704 59.1972 132.118 60.3652 133.027 61.2476L134.42 59.8124C133.969 59.3748 133.704 58.7628 133.704 57.86H131.704ZM133.049 61.268C133.962 62.1032 135.116 62.49 136.424 62.49V60.49C135.531 60.49 134.885 60.2368 134.398 59.792L133.049 61.268ZM136.424 62.49C137.745 62.49 138.908 62.1065 139.809 61.2582L138.438 59.8018C137.98 60.2335 137.343 60.49 136.424 60.49V62.49ZM139.81 61.2576C140.743 60.3773 141.174 59.2061 141.174 57.86H139.174C139.174 58.7539 138.904 59.3627 138.438 59.8024L139.81 61.2576ZM141.174 57.86C141.174 56.5279 140.74 55.3691 139.81 54.4924L138.438 55.9476C138.908 56.3909 139.174 56.9921 139.174 57.86H141.174ZM139.82 54.5024C138.92 53.6289 137.753 53.23 136.424 53.23V55.23C137.334 55.23 137.967 55.4911 138.427 55.9376L139.82 54.5024ZM136.424 53.23C135.108 53.23 133.95 53.6322 133.038 54.4924L134.41 55.9476C134.897 55.4878 135.539 55.23 136.424 55.23V53.23ZM133.027 54.5024C132.122 55.3813 131.704 56.5368 131.704 57.86H133.704C133.704 56.9832 133.966 56.3787 134.42 55.9376L133.027 54.5024ZM157.389 42.56H158.389V41.56H157.389V42.56ZM157.719 44.99L156.762 45.2822L157.719 44.99ZM158.559 46.88L157.712 47.4128L157.719 47.4238L157.727 47.4347L158.559 46.88ZM159.969 48.83L159.174 49.4367L159.177 49.4414L159.969 48.83ZM161.589 51.17L160.727 51.677L160.736 51.6921L160.745 51.7069L161.589 51.17ZM162.639 53.63L161.677 53.9047L161.68 53.9137L161.683 53.9227L162.639 53.63ZM162.009 61.55L161.144 61.0478L161.138 61.0584L162.009 61.55ZM159.129 64.37L159.588 65.2584L159.593 65.2555L159.129 64.37ZM151.029 64.34L150.558 65.2224L151.029 64.34ZM148.179 61.52L147.302 62.0009L147.308 62.0116L148.179 61.52ZM147.579 53.72L147.613 52.7206L146.798 52.6925L146.607 53.4854L147.579 53.72ZM151.929 53.87L152.907 54.0781L153.155 52.9117L151.963 52.8706L151.929 53.87ZM152.529 60.08L151.715 60.6612L151.72 60.6676L151.724 60.6739L152.529 60.08ZM157.599 60.23L156.824 59.5979L156.822 59.6002L157.599 60.23ZM158.559 56.96L159.559 56.9741V56.96H158.559ZM157.929 54.05L157.03 54.4884L157.036 54.5017L157.043 54.5148L157.929 54.05ZM156.069 51.17L156.864 50.5631L156.858 50.5561L156.069 51.17ZM154.359 48.74L153.495 49.2439L153.5 49.2527L153.505 49.2614L154.359 48.74ZM153.279 46.13L152.314 46.3947L152.317 46.4035L152.319 46.4122L153.279 46.13ZM152.919 42.56V41.56H151.948L151.919 42.5306L152.919 42.56ZM156.389 42.56C156.389 43.5403 156.508 44.4511 156.762 45.2822L158.675 44.6978C158.489 44.0889 158.389 43.3797 158.389 42.56H156.389ZM156.762 45.2822C157.004 46.0722 157.318 46.7858 157.712 47.4128L159.405 46.3472C159.12 45.8942 158.874 45.3478 158.675 44.6978L156.762 45.2822ZM157.727 47.4347C158.103 47.9985 158.586 48.6668 159.174 49.4367L160.764 48.2233C160.191 47.4732 159.735 46.8414 159.391 46.3253L157.727 47.4347ZM159.177 49.4414C159.841 50.3005 160.355 51.0446 160.727 51.677L162.451 50.663C162.023 49.9354 161.456 49.1195 160.76 48.2186L159.177 49.4414ZM160.745 51.7069C161.1 52.2653 161.416 52.991 161.677 53.9047L163.6 53.3553C163.301 52.309 162.917 51.3947 162.432 50.6331L160.745 51.7069ZM161.683 53.9227C161.947 54.7864 162.089 55.8239 162.089 57.05H164.089C164.089 55.6761 163.931 54.4336 163.595 53.3373L161.683 53.9227ZM162.089 57.05C162.089 58.6735 161.757 59.9915 161.144 61.0479L162.874 62.0521C163.7 60.6285 164.089 58.9465 164.089 57.05H162.089ZM161.138 61.0584C160.529 62.1367 159.708 62.937 158.664 63.4845L159.593 65.2555C160.99 64.523 162.088 63.4433 162.88 62.0416L161.138 61.0584ZM158.67 63.4816C157.627 64.0205 156.437 64.3 155.079 64.3V66.3C156.721 66.3 158.231 65.9595 159.588 65.2584L158.67 63.4816ZM155.079 64.3C153.726 64.3 152.54 64.0127 151.499 63.4576L150.558 65.2224C151.917 65.9473 153.432 66.3 155.079 66.3V64.3ZM151.499 63.4576C150.475 62.9115 149.661 62.1109 149.05 61.0284L147.308 62.0116C148.097 63.4091 149.182 64.4885 150.558 65.2224L151.499 63.4576ZM149.056 61.0392C148.474 59.9784 148.159 58.6524 148.159 57.02H146.159C146.159 58.9076 146.524 60.5816 147.302 62.0008L149.056 61.0392ZM148.159 57.02C148.159 56.0696 148.287 55.0488 148.551 53.9546L146.607 53.4854C146.311 54.7112 146.159 55.8904 146.159 57.02H148.159ZM147.544 54.7194L151.894 54.8694L151.963 52.8706L147.613 52.7206L147.544 54.7194ZM150.951 53.6619C150.737 54.6673 150.629 55.667 150.629 56.66H152.629C152.629 55.813 152.721 54.9527 152.907 54.0781L150.951 53.6619ZM150.629 56.66C150.629 58.2284 150.954 59.5965 151.715 60.6612L153.342 59.4988C152.903 58.8835 152.629 57.9716 152.629 56.66H150.629ZM151.724 60.6739C152.544 61.7849 153.711 62.34 155.109 62.34V60.34C154.306 60.34 153.753 60.0551 153.333 59.4861L151.724 60.6739ZM155.109 62.34C156.432 62.34 157.563 61.8624 158.375 60.8598L156.822 59.6002C156.435 60.0776 155.906 60.34 155.109 60.34V62.34ZM158.374 60.8621C159.188 59.8642 159.537 58.5216 159.559 56.9741L157.559 56.9459C157.541 58.2384 157.25 59.0758 156.824 59.5979L158.374 60.8621ZM159.559 56.96C159.559 55.6995 159.327 54.5612 158.814 53.5852L157.043 54.5148C157.371 55.1388 157.559 55.9405 157.559 56.96H159.559ZM158.827 53.6116C158.388 52.71 157.725 51.6917 156.863 50.5631L155.274 51.7769C156.092 52.8483 156.67 53.75 157.03 54.4884L158.827 53.6116ZM156.858 50.5561C156.174 49.6761 155.627 48.8977 155.212 48.2185L153.505 49.2614C153.97 50.0223 154.564 50.8639 155.279 51.7839L156.858 50.5561ZM155.223 48.2361C154.853 47.6019 154.521 46.8105 154.238 45.8478L152.319 46.4122C152.636 47.4895 153.025 48.4381 153.495 49.2439L155.223 48.2361ZM154.243 45.8653C153.996 44.9639 153.88 43.877 153.918 42.5894L151.919 42.5306C151.877 43.963 152.002 45.2561 152.314 46.3947L154.243 45.8653ZM152.919 43.56H157.389V41.56H152.919V43.56Z" fill="#232323"/>
</svg>
